<?xml version="1.0" encoding="UTF-8"?>
<svg version="1.1" xmlns="http://www.w3.org/2000/svg" width="480" height="480">
<path d="M0 0 C158.4 0 316.8 0 480 0 C480 158.4 480 316.8 480 480 C321.6 480 163.2 480 0 480 C0 321.6 0 163.2 0 0 Z " fill="#000000" transform="translate(0,0)"/>
<path d="M0 0 C1.1439901 -0.00623996 2.28798019 -0.01247993 3.46663666 -0.01890898 C6.64252578 -0.03211727 9.81780499 -0.02734515 12.99367905 -0.0149641 C16.41842676 -0.00592603 19.84309105 -0.01987711 23.26782227 -0.03088379 C29.97703364 -0.048687 36.68606621 -0.04482109 43.39528465 -0.03323323 C48.84711553 -0.02420623 54.29889622 -0.02297171 59.75073242 -0.02732849 C60.91383887 -0.02824789 60.91383887 -0.02824789 62.10044241 -0.02918586 C63.67557336 -0.03046474 65.2507043 -0.03176159 66.82583523 -0.03307623 C81.60206543 -0.0444873 96.37819643 -0.03136008 111.15441036 -0.00987476 C123.83801597 0.00799672 136.52147516 0.00489276 149.20507812 -0.0135498 C163.9277818 -0.03494724 178.65039849 -0.04338861 193.37311554 -0.03110075 C194.94250996 -0.02982653 196.51190439 -0.02856905 198.08129883 -0.02732849 C198.8535069 -0.02671139 199.62571498 -0.02609429 200.4213233 -0.02545848 C205.86773609 -0.02200219 211.31409379 -0.02783992 216.76049805 -0.0372467 C223.39627053 -0.04845558 230.0318537 -0.04545024 236.66760445 -0.02412373 C240.05447943 -0.01359812 243.4410386 -0.00951672 246.82791138 -0.02272034 C250.49626987 -0.03359472 254.16373051 -0.02000897 257.83203125 0 C258.90711693 -0.00892289 259.98220261 -0.01784577 261.08986664 -0.02703905 C268.24700358 0.04907469 268.24700358 0.04907469 271.57743931 2.33334351 C273.54227889 5.52533379 273.41725196 8.05311337 273.41772461 11.7833252 C273.42582909 12.87184029 273.42582909 12.87184029 273.43409729 13.98234558 C273.44658597 16.37670915 273.43009395 18.76987055 273.41210938 21.16418457 C273.41226436 22.83040429 273.41375328 24.49662437 273.41651917 26.1628418 C273.41790321 29.6531978 273.4053445 33.14314291 273.38256836 36.63342285 C273.35418346 41.10592616 273.35692085 45.57774677 273.36965847 50.0503006 C273.37661568 53.49043604 273.36882593 56.93041386 273.35640144 60.37052917 C273.35188734 62.01954036 273.35154979 63.66856847 273.35546684 65.31758118 C273.35837955 67.62292116 273.34187051 69.92732261 273.32006836 72.23254395 C273.31466537 73.54396362 273.30926239 74.8553833 273.30369568 76.20654297 C272.89484853 79.68818851 272.41089482 81.09479275 269.91601562 83.50793457 C267.03270735 84.46903733 265.2269663 84.63490828 262.23203373 84.63936234 C260.77942334 84.64512405 260.77942334 84.64512405 259.29746729 84.65100217 C257.69797878 84.64970245 257.69797878 84.64970245 256.06617737 84.64837646 C254.36984985 84.65283315 254.36984985 84.65283315 252.63925308 84.65737987 C248.82988854 84.66608802 245.02055536 84.66757689 241.21118164 84.66906738 C238.48819797 84.67315507 235.76521763 84.67869762 233.04223633 84.68411255 C225.63122637 84.69769842 218.22022182 84.70372072 210.80920148 84.70812321 C206.18370718 84.71088466 201.55821498 84.71512179 196.93272209 84.71962738 C184.13112424 84.73181936 171.32952807 84.74211948 158.52792454 84.74550247 C157.70850783 84.74572204 156.88909113 84.7459416 156.04484361 84.74616782 C155.22344915 84.7463861 154.4020547 84.74660438 153.5557695 84.74682927 C151.89126495 84.74727274 150.22676041 84.7477193 148.56225586 84.74816895 C147.73660131 84.74839038 146.91094677 84.7486118 146.06027239 84.74883994 C132.67419722 84.75279009 119.28817642 84.77025101 105.90212227 84.79352847 C92.16557506 84.81722308 78.42905516 84.82970342 64.69248718 84.83087039 C56.97713157 84.83178811 49.26184682 84.83756488 41.5465107 84.85569 C34.97846419 84.87106537 28.41051045 84.87622661 21.84244937 84.8679519 C18.49000459 84.86403646 15.13789926 84.86663932 11.78545189 84.87900925 C8.15441729 84.89162503 4.52386797 84.88590834 0.89283752 84.87542725 C-0.17125743 84.88348365 -1.23535238 84.89154006 -2.33169264 84.89984059 C-3.30270731 84.89325075 -4.27372198 84.8866609 -5.27416134 84.87987137 C-6.11247649 84.88046846 -6.95079164 84.88106555 -7.81451029 84.88168073 C-10.64829318 84.41500192 -12.00854377 83.46836794 -14.08398438 81.50793457 C-15.25935319 77.98182812 -15.23270837 75.16033077 -15.26098633 71.43786621 C-15.26755753 70.72208908 -15.27412872 70.00631195 -15.28089905 69.2688446 C-15.30059883 66.90192559 -15.31228513 64.53506982 -15.32226562 62.16809082 C-15.32634115 61.35942503 -15.33041668 60.55075924 -15.33461571 59.71758842 C-15.35545896 55.4401055 -15.36977008 51.16265453 -15.37915039 46.88513184 C-15.3902313 42.46527143 -15.42465506 38.04591219 -15.46432209 33.62622929 C-15.49044442 30.22817539 -15.49883813 26.83024196 -15.50243187 23.43209648 C-15.50730661 21.80258219 -15.51894587 20.17307359 -15.53746986 18.5436573 C-15.56177682 16.26449678 -15.56091294 13.98664747 -15.55395508 11.70739746 C-15.55982132 10.41072647 -15.56568756 9.11405548 -15.57173157 7.77809143 C-15.08398438 4.50793457 -15.08398438 4.50793457 -13.7462492 2.33529568 C-9.45943923 -0.60714256 -5.07946288 -0.04215801 0 0 Z " fill="#050506" transform="translate(111.083984375,315.4920654296875)"/>
<path d="M0 0 C3.63 0 7.26 0 11 0 C11.85836505 6.88632492 12.7127553 13.77312699 13.56347656 20.66040039 C13.85340103 23.00298361 14.14440848 25.34543306 14.43652344 27.68774414 C14.85637083 31.05580563 15.27231288 34.42433 15.6875 37.79296875 C15.81874268 38.83897751 15.94998535 39.88498627 16.08520508 40.96269226 C16.20532959 41.94333145 16.3254541 42.92397064 16.44921875 43.93432617 C16.55580811 44.79370285 16.66239746 45.65307953 16.7722168 46.53849792 C17.00374467 49.04046612 17.0395911 51.48886074 17 54 C17.67035278 53.45641846 17.67035278 53.45641846 18.35424805 52.90185547 C37.05070164 37.85950205 37.05070164 37.85950205 47 35 C49.35546875 35.3671875 49.35546875 35.3671875 51 36 C50.46632813 36.55945313 49.93265625 37.11890625 49.3828125 37.6953125 C37.67145672 50.29819017 26.15212622 63.76120338 26.4777832 81.72167969 C26.9927691 92.10509734 30.36191141 99.87005868 38 107 C41.40930803 109.9753961 44.55385178 111.88071044 48.75 113.5625 C49.79285156 113.98273438 50.83570313 114.40296875 51.91015625 114.8359375 C55.35587101 116.13407024 58.82301404 117.28675908 62.35546875 118.32421875 C64 119 64 119 65 121 C26.72 121 -11.56 121 -51 121 C-48.35138358 118.35138358 -47.31038725 117.506509 -44.05078125 116.203125 C-43.28854248 115.88827148 -42.52630371 115.57341797 -41.7409668 115.24902344 C-40.53887573 114.75450684 -40.53887573 114.75450684 -39.3125 114.25 C-29.69875133 110.08705198 -23.381597 106.76572633 -19.0625 96.8125 C-15.12647261 86.4187192 -14.32035114 76.2051483 -18.6875 65.7421875 C-22.88042273 56.98197394 -27.67805917 49.76232478 -34.44360352 42.83227539 C-38 39.18011303 -38 39.18011303 -38 37 C-38.66 37 -39.32 37 -40 37 C-40 36.34 -40 35.68 -40 35 C-27.55260448 37.54805508 -15.93424739 45.12284045 -7 54 C-5.3625054 42.84577207 -4.21324934 31.65452628 -3.14135742 20.43286133 C-2.45605121 13.50592553 -1.49796649 6.79895996 0 0 Z " fill="#A44C1B" transform="translate(235,189)"/>
<path d="M0 0 C13.2 0 26.4 0 40 0 C40.99 1.98 41.98 3.96 43 6 C43.8754245 6.45934937 44.750849 6.91869873 45.65280151 7.39196777 C46.42737701 7.92261841 47.20195251 8.45326904 48 9 C48.48593374 11.78041246 48.62811975 13.94923146 48.55517578 16.72851562 C48.55418381 17.51417404 48.55319183 18.29983246 48.5521698 19.10929871 C48.54188513 21.70916575 48.49474985 24.30685382 48.4453125 26.90625 C48.42623823 28.71080033 48.40867011 30.51536717 48.39254761 32.31994629 C48.35293666 36.10320889 48.295132 39.88564809 48.22460938 43.66845703 C48.13559063 48.52094522 48.09144194 53.37261017 48.06086922 58.22577667 C48.03249309 61.95266236 47.98047764 65.67892928 47.92126083 69.40544128 C47.89567006 71.194749 47.87744978 72.98417761 47.86667252 74.77363586 C47.84804278 77.27401261 47.79767874 79.77177613 47.73876953 82.27148438 C47.73953995 83.01339523 47.74031036 83.75530609 47.74110413 84.5196991 C47.67288208 86.58435059 47.67288208 86.58435059 47 90 C44.5788269 91.67053223 44.5788269 91.67053223 42 93 C41.34 94.65 40.68 96.3 40 98 C27.13 98 14.26 98 1 98 C0.01 96.02 -0.98 94.04 -2 92 C-4.05093145 90.59533047 -4.05093145 90.59533047 -6 90 C-6.01030746 89.35394302 -6.02061493 88.70788605 -6.03123474 88.04225159 C-6.14135679 81.17727564 -6.25572567 74.31237886 -6.37231445 67.44750977 C-6.41502019 64.90227959 -6.45672408 62.35703237 -6.49731445 59.81176758 C-6.76848396 42.8619995 -7.23134804 25.93482798 -8 9 C-7.05125 8.62875 -6.1025 8.2575 -5.125 7.875 C-1.28819694 6.03389538 -1.28819694 6.03389538 0 0 Z " fill="#81E10C" transform="translate(220,73)"/>
<path d="M0 0 C1.1439901 -0.00623996 2.28798019 -0.01247993 3.46663666 -0.01890898 C6.64252578 -0.03211727 9.81780499 -0.02734515 12.99367905 -0.0149641 C16.41842676 -0.00592603 19.84309105 -0.01987711 23.26782227 -0.03088379 C29.97703364 -0.048687 36.68606621 -0.04482109 43.39528465 -0.03323323 C48.84711553 -0.02420623 54.29889622 -0.02297171 59.75073242 -0.02732849 C60.91383887 -0.02824789 60.91383887 -0.02824789 62.10044241 -0.02918586 C63.67557336 -0.03046474 65.2507043 -0.03176159 66.82583523 -0.03307623 C81.60206543 -0.0444873 96.37819643 -0.03136008 111.15441036 -0.00987476 C123.83801597 0.00799672 136.52147516 0.00489276 149.20507812 -0.0135498 C163.9277818 -0.03494724 178.65039849 -0.04338861 193.37311554 -0.03110075 C194.94250996 -0.02982653 196.51190439 -0.02856905 198.08129883 -0.02732849 C198.8535069 -0.02671139 199.62571498 -0.02609429 200.4213233 -0.02545848 C205.86773609 -0.02200219 211.31409379 -0.02783992 216.76049805 -0.0372467 C223.39627053 -0.04845558 230.0318537 -0.04545024 236.66760445 -0.02412373 C240.05447943 -0.01359812 243.4410386 -0.00951672 246.82791138 -0.02272034 C250.49626987 -0.03359472 254.16373051 -0.02000897 257.83203125 0 C258.90711693 -0.00892289 259.98220261 -0.01784577 261.08986664 -0.02703905 C268.24700358 0.04907469 268.24700358 0.04907469 271.57743931 2.33334351 C273.54227889 5.52533379 273.41725196 8.05311337 273.41772461 11.7833252 C273.42582909 12.87184029 273.42582909 12.87184029 273.43409729 13.98234558 C273.44658597 16.37670915 273.43009395 18.76987055 273.41210938 21.16418457 C273.41226436 22.83040429 273.41375328 24.49662437 273.41651917 26.1628418 C273.41790321 29.6531978 273.4053445 33.14314291 273.38256836 36.63342285 C273.35418346 41.10592616 273.35692085 45.57774677 273.36965847 50.0503006 C273.37661568 53.49043604 273.36882593 56.93041386 273.35640144 60.37052917 C273.35188734 62.01954036 273.35154979 63.66856847 273.35546684 65.31758118 C273.35837955 67.62292116 273.34187051 69.92732261 273.32006836 72.23254395 C273.31466537 73.54396362 273.30926239 74.8553833 273.30369568 76.20654297 C272.89484853 79.68818851 272.41089482 81.09479275 269.91601562 83.50793457 C267.03270735 84.46903733 265.2269663 84.63490828 262.23203373 84.63936234 C260.77942334 84.64512405 260.77942334 84.64512405 259.29746729 84.65100217 C257.69797878 84.64970245 257.69797878 84.64970245 256.06617737 84.64837646 C254.36984985 84.65283315 254.36984985 84.65283315 252.63925308 84.65737987 C248.82988854 84.66608802 245.02055536 84.66757689 241.21118164 84.66906738 C238.48819797 84.67315507 235.76521763 84.67869762 233.04223633 84.68411255 C225.63122637 84.69769842 218.22022182 84.70372072 210.80920148 84.70812321 C206.18370718 84.71088466 201.55821498 84.71512179 196.93272209 84.71962738 C184.13112424 84.73181936 171.32952807 84.74211948 158.52792454 84.74550247 C157.70850783 84.74572204 156.88909113 84.7459416 156.04484361 84.74616782 C155.22344915 84.7463861 154.4020547 84.74660438 153.5557695 84.74682927 C151.89126495 84.74727274 150.22676041 84.7477193 148.56225586 84.74816895 C147.73660131 84.74839038 146.91094677 84.7486118 146.06027239 84.74883994 C132.67419722 84.75279009 119.28817642 84.77025101 105.90212227 84.79352847 C92.16557506 84.81722308 78.42905516 84.82970342 64.69248718 84.83087039 C56.97713157 84.83178811 49.26184682 84.83756488 41.5465107 84.85569 C34.97846419 84.87106537 28.41051045 84.87622661 21.84244937 84.8679519 C18.49000459 84.86403646 15.13789926 84.86663932 11.78545189 84.87900925 C8.15441729 84.89162503 4.52386797 84.88590834 0.89283752 84.87542725 C-0.17125743 84.88348365 -1.23535238 84.89154006 -2.33169264 84.89984059 C-3.30270731 84.89325075 -4.27372198 84.8866609 -5.27416134 84.87987137 C-6.11247649 84.88046846 -6.95079164 84.88106555 -7.81451029 84.88168073 C-10.64829318 84.41500192 -12.00854377 83.46836794 -14.08398438 81.50793457 C-15.25935319 77.98182812 -15.23270837 75.16033077 -15.26098633 71.43786621 C-15.26755753 70.72208908 -15.27412872 70.00631195 -15.28089905 69.2688446 C-15.30059883 66.90192559 -15.31228513 64.53506982 -15.32226562 62.16809082 C-15.32634115 61.35942503 -15.33041668 60.55075924 -15.33461571 59.71758842 C-15.35545896 55.4401055 -15.36977008 51.16265453 -15.37915039 46.88513184 C-15.3902313 42.46527143 -15.42465506 38.04591219 -15.46432209 33.62622929 C-15.49044442 30.22817539 -15.49883813 26.83024196 -15.50243187 23.43209648 C-15.50730661 21.80258219 -15.51894587 20.17307359 -15.53746986 18.5436573 C-15.56177682 16.26449678 -15.56091294 13.98664747 -15.55395508 11.70739746 C-15.55982132 10.41072647 -15.56568756 9.11405548 -15.57173157 7.77809143 C-15.08398438 4.50793457 -15.08398438 4.50793457 -13.7462492 2.33529568 C-9.45943923 -0.60714256 -5.07946288 -0.04215801 0 0 Z M-10.08398438 6.50793457 C-10.38510723 9.6188819 -10.38510723 9.6188819 -10.3269043 13.32849121 C-10.32880264 14.02943405 -10.33070099 14.73037689 -10.33265686 15.45256042 C-10.33636823 17.77451687 -10.32565643 20.09616207 -10.31445312 22.41809082 C-10.31326153 24.02709415 -10.31280812 25.63609818 -10.31306458 27.24510193 C-10.31149914 30.61864572 -10.30320427 33.99208347 -10.28979492 37.36560059 C-10.27279135 41.69927096 -10.26898093 46.03282487 -10.2697401 50.3665247 C-10.26946877 53.68897116 -10.26399375 57.01139194 -10.25673866 60.33382988 C-10.25354706 61.93229414 -10.25158345 63.53076132 -10.25084496 65.12922859 C-10.24868734 67.35846081 -10.2399562 69.5875671 -10.22924805 71.81677246 C-10.22543625 73.08759171 -10.22162445 74.35841095 -10.21769714 75.66773987 C-10.40799098 78.40828517 -10.40799098 78.40828517 -9.08398438 79.50793457 C-7.6097352 79.6055672 -6.13081406 79.6334893 -4.65333557 79.63377571 C-3.20914828 79.63768733 -3.20914828 79.63768733 -1.73578548 79.64167798 C-0.13032533 79.63833189 -0.13032533 79.63833189 1.50756836 79.63491821 C2.63477767 79.6364782 3.76198698 79.63803819 4.92335415 79.63964546 C8.73211886 79.64366077 12.5408443 79.64046376 16.34960938 79.6373291 C19.06731245 79.63813239 21.78501382 79.6404263 24.50271606 79.64263916 C31.13708261 79.64709762 37.77143788 79.64612005 44.40580487 79.64322652 C49.79526694 79.64097278 55.18472583 79.64065983 60.57418823 79.64175034 C61.72255147 79.64198019 61.72255147 79.64198019 62.89411396 79.64221468 C64.44911869 79.64253439 66.00412343 79.6428586 67.55912817 79.64318727 C82.15781395 79.64604228 96.75649348 79.6427547 111.35517824 79.6373869 C123.89531728 79.63291884 136.43544706 79.63369477 148.97558594 79.63830566 C163.52022612 79.64365105 178.06486081 79.64576759 192.60950184 79.6426934 C194.1589489 79.64237483 195.70839596 79.64206046 197.25784302 79.64175034 C198.02030175 79.64159606 198.78276049 79.64144178 199.56832403 79.64128283 C204.95447606 79.64041757 210.34062463 79.64188075 215.72677612 79.64422989 C222.28615181 79.64702769 228.84551552 79.64629005 235.40488982 79.64094914 C238.75482283 79.63831186 242.10471919 79.63784126 245.45465469 79.6405983 C249.07794443 79.64330659 252.70117686 79.63993263 256.32446289 79.63491821 C257.92992304 79.6382643 257.92992304 79.6382643 259.56781673 79.64167798 C260.53060826 79.63907023 261.49339979 79.63646248 262.48536682 79.63377571 C263.74161787 79.63353218 263.74161787 79.63353218 265.02324772 79.63328373 C266.92764925 79.71591269 266.92764925 79.71591269 267.91601562 78.50793457 C268.02092798 76.27948986 268.05458775 74.04767534 268.0612793 71.81677246 C268.06463791 71.11758194 268.06799652 70.41839142 268.07145691 69.69801331 C268.08099356 67.37552131 268.08291138 65.0531012 268.08398438 62.73059082 C268.08719509 61.1225532 268.09055902 59.51451588 268.09407043 57.90647888 C268.10006852 54.53119225 268.10190964 51.15593124 268.10131836 47.78063965 C268.1012167 43.44812157 268.11486946 39.11576725 268.13209057 34.783288 C268.14319014 31.46080261 268.1452382 28.13835706 268.14470863 24.81585503 C268.14589182 23.21820956 268.15033245 21.62056317 268.158041 20.02293587 C268.16779985 17.79133651 268.16497935 15.56009591 268.15893555 13.32849121 C268.16107307 11.42106895 268.16107307 11.42106895 268.16325378 9.47511292 C268.22776895 6.38905519 268.22776895 6.38905519 265.91601562 4.50793457 C263.83326167 4.20527552 263.83326167 4.20527552 261.39634705 4.25625229 C260.43914796 4.25103679 259.48194887 4.2458213 258.49574375 4.24044776 C257.43681384 4.2449092 256.37788393 4.24937065 255.28686523 4.25396729 C253.60807864 4.24928731 253.60807864 4.24928731 251.89537716 4.2445128 C248.11965206 4.23649222 244.34408587 4.24287224 240.56835938 4.24914551 C237.8718315 4.24643744 235.17531483 4.24295032 232.47879028 4.23852539 C225.89969394 4.22961375 219.32064312 4.23156125 212.74154496 4.23735067 C207.39644893 4.24186022 202.0513657 4.24248314 196.70626831 4.24030304 C195.94666776 4.23999657 195.1870672 4.23969011 194.40444845 4.23937435 C192.86152498 4.23873493 191.31860151 4.2380865 189.77567804 4.23742917 C175.29426583 4.23172069 160.81287891 4.23829188 146.33147085 4.2490299 C133.89512154 4.25796589 121.45880957 4.25641399 109.02246094 4.24719238 C94.59426159 4.23649888 80.16608442 4.23227006 65.73788166 4.23841691 C64.20050876 4.23905404 62.66313585 4.23968278 61.12576294 4.24030304 C60.36926813 4.24061159 59.61277331 4.24092014 58.83335441 4.24123804 C53.49224024 4.24296775 48.15114008 4.24004396 42.81002808 4.23534393 C36.3044905 4.2297453 29.79900121 4.23123002 23.29346919 4.24190542 C19.9717386 4.24717593 16.65010566 4.24812608 13.32837296 4.24260712 C9.73388889 4.23718352 6.1396352 4.24394694 2.54516602 4.25396729 C1.4862361 4.24950584 0.42730619 4.2450444 -0.6637125 4.24044776 C-1.62091159 4.24566325 -2.57811068 4.25087875 -3.5643158 4.25625229 C-4.81007086 4.25673935 -4.81007086 4.25673935 -6.0809927 4.25723624 C-8.31384272 4.32858308 -8.31384272 4.32858308 -10.08398438 6.50793457 Z " fill="#FBF9F7" transform="translate(111.083984375,315.4920654296875)"/>
<path d="M0 0 C25.41 0 50.82 0 77 0 C77 6.7981826 76.81159931 13.25774864 76.125 19.9765625 C75.94156148 21.87037903 75.75880636 23.76426186 75.57666016 25.65820312 C75.43445038 27.12012085 75.43445038 27.12012085 75.28936768 28.61157227 C73.6733389 45.44063209 72.20400471 62.08387918 73 79 C73.05021301 80.07846191 73.05021301 80.07846191 73.10144043 81.17871094 C73.64735605 92.79171731 74.31725397 104.39331745 75 116 C50.91 116 26.82 116 2 116 C2.33 106.43 2.66 96.86 3 87 C3.12949522 80.12181145 3.24121061 73.25303339 3.25 66.375 C3.25233643 65.50609131 3.25467285 64.63718262 3.25708008 63.74194336 C3.27128526 49.4760623 2.50871227 35.37973125 1.06738281 21.18896484 C0.96402618 20.164991 0.96402618 20.164991 0.85858154 19.12033081 C0.67174252 17.30663957 0.4740554 15.49407463 0.27539062 13.68164062 C-0.06486166 9.13287784 0 4.56147065 0 0 Z M18 9 C17.34 10.98 16.68 12.96 16 15 C12.875 16.875 12.875 16.875 10 18 C10.02734726 18.60251083 10.05469452 19.20502167 10.08287048 19.82579041 C10.86665357 37.40224711 11.2819699 54.97154551 11.5625 72.5625 C11.60585606 75.14648881 11.64947462 77.73047324 11.69335938 80.31445312 C11.79858352 86.54292165 11.90062686 92.77143551 12 99 C12.598125 99.20625 13.19625 99.4125 13.8125 99.625 C16 101 16 101 19 107 C31.87 107 44.74 107 58 107 C58.99 105.02 59.98 103.04 61 101 C63.1875 99.625 63.1875 99.625 65 99 C65.26963219 88.50860824 65.5066734 78.01703625 65.70202446 67.523983 C65.7937594 62.65168514 65.89674559 57.78016556 66.02539062 52.90869141 C66.14910886 48.20814116 66.24334256 43.50784217 66.31708145 38.80625153 C66.35041984 37.01186706 66.39441391 35.21764818 66.44918442 33.42378998 C66.52406102 30.91201468 66.56114226 28.40232057 66.58935547 25.88964844 C66.62027786 25.14661972 66.65120026 24.403591 66.68305969 23.63804626 C66.74921007 21.29331325 66.74921007 21.29331325 66 18 C63.13239099 15.7690787 63.13239099 15.7690787 60 14 C59.34 12.35 58.68 10.7 58 9 C44.8 9 31.6 9 18 9 Z " fill="#028922" transform="translate(202,64)"/>
<path d="M0 0 C1.23907104 -0.0009668 1.23907104 -0.0009668 2.50317383 -0.00195312 C10.84074689 0.06793033 19.00599597 1.00526127 27.25 2.1875 C25.57398544 6.95337381 23.03626327 11.07302534 20.4375 15.375 C17.6097255 20.08779007 14.89705764 24.73741924 12.625 29.75 C8.84183268 37.54199725 2.42575919 43.29905813 -5.75 46.1875 C-10.42201649 47.40647963 -14.97842316 47.31504764 -19.76953125 47.28515625 C-21.05738777 47.28303383 -21.05738777 47.28303383 -22.3712616 47.28086853 C-25.10171049 47.27529057 -27.83207607 47.26274214 -30.5625 47.25 C-32.4186186 47.24498215 -34.2747385 47.24041974 -36.13085938 47.23632812 C-40.6706048 47.22532836 -45.2102883 47.20807893 -49.75 47.1875 C-48.62353096 43.63237891 -47.44068486 40.32229903 -45.6484375 37.05078125 C-45.24488037 36.3139209 -44.84132324 35.57706055 -44.42553711 34.81787109 C-28.20789623 5.91411992 -28.20789623 5.91411992 -13.75 1.1875 C-9.17038752 0.00941128 -4.69812045 -0.00379915 0 0 Z " fill="#028922" transform="translate(342.75,195.8125)"/>
<path d="M0 0 C6.08820031 5.94559382 10.18067199 13.4196966 14.375 20.75 C14.84212402 21.5661377 15.30924805 22.38227539 15.79052734 23.22314453 C24.375 38.31074093 24.375 38.31074093 24.375 39.75 C18.87985376 39.84973738 13.38524774 39.9218742 7.8894043 39.96972656 C6.02440193 39.98969895 4.15946102 40.01688668 2.29467773 40.05175781 C-11.58856473 40.30465374 -23.03144057 40.2878342 -33.61962891 30.10498047 C-37.17624717 25.92831383 -39.47081023 21.24321851 -41.8125 16.3125 C-45.33445675 9.10356844 -48.97650621 2.30336236 -53.625 -4.25 C-14.64282952 -11.51053729 -14.64282952 -11.51053729 0 0 Z " fill="#038A22" transform="translate(163.625,203.25)"/>
<path d="M0 0 C0.35449219 0.91136719 0.70898438 1.82273437 1.07421875 2.76171875 C5.68476012 14.13946547 11.88704808 24.20644426 18.45361328 34.546875 C20.65461853 38.03846022 22.79117479 41.56240806 24.875 45.125 C25.51179688 46.20007813 26.14859375 47.27515625 26.8046875 48.3828125 C28 51 28 51 27 54 C24.4159533 55.48084609 21.85864728 56.82106962 19.1875 58.125 C12.25567376 61.61499716 6.29297085 65.50414389 0.3203125 70.4453125 C-0.82824219 71.21488281 -0.82824219 71.21488281 -2 72 C-5 71 -5 71 -6.62109375 67.78125 C-7.2304203 66.35580957 -7.83558676 64.92858661 -8.4375 63.5 C-14.63285547 49.62923027 -23.86065219 37.90975276 -33.8203125 26.5390625 C-36 24 -36 24 -38 21 C-37.030625 20.53851563 -36.06125 20.07703125 -35.0625 19.6015625 C-24.17216885 14.33315243 -13.28795624 8.61270456 -3.671875 1.20703125 C-2 0 -2 0 0 0 Z " fill="#028922" transform="translate(169,88)"/>
<path d="M0 0 C3.1692708 1.42851369 5.92758353 3.29120327 8.77319336 5.27587891 C17.72936869 11.49856104 27.16040513 16.33380037 37 21 C33.69820194 25.46269474 30.3517676 29.83523459 26.75 34.0625 C17.13949976 45.8050776 10.07911953 58.12670209 4 72 C0.06131171 71.16784613 -2.04663755 69.55167387 -5.1875 67 C-12.58615167 61.28827758 -20.66596434 57.17689228 -29 53 C-25.98981704 46.52259528 -22.50390313 40.44232503 -18.75 34.375 C-8.42928958 17.68715958 -8.42928958 17.68715958 0 0 Z " fill="#028A22" transform="translate(312,88)"/>
<path d="M0 0 C23 0 23 0 33 3 C36.48227615 6.48227615 37.90421655 8.85059865 38.3125 13.75 C38.28064588 18.12994119 36.70839898 20.55294675 34 24 C33.67 24.66 33.34 25.32 33 26 C33.969375 26.78375 34.93875 27.5675 35.9375 28.375 C37.83962346 29.91288705 38.89629957 30.79259913 40 33 C40.51848559 38.20185538 40.62018013 42.63560371 38.4375 47.4375 C34.48009432 51.59784956 31.4485863 53.76156157 25.71313477 54.32006836 C21.82020008 54.39350078 17.95525398 54.34774595 14.0625 54.25 C7.1015625 54.12625 7.1015625 54.12625 0 54 C0 36.18 0 18.36 0 0 Z " fill="#F2EFEB" transform="translate(120,331)"/>
<path d="M0 0 C2.9296875 0.9765625 2.9296875 0.9765625 5.859375 1.953125 C5.859375 2.283125 5.859375 2.613125 5.859375 2.953125 C5.055 3.076875 4.250625 3.200625 3.421875 3.328125 C2.1534375 3.6375 2.1534375 3.6375 0.859375 3.953125 C-10.17290088 26.01767676 -0.140625 53.28420618 -0.140625 77.953125 C90.609375 78.283125 181.359375 78.613125 274.859375 78.953125 C274.859375 79.283125 274.859375 79.613125 274.859375 79.953125 C212.489375 80.283125 150.119375 80.613125 85.859375 80.953125 C148.889375 81.283125 211.919375 81.613125 276.859375 81.953125 C276.529375 82.613125 276.199375 83.273125 275.859375 83.953125 C240.63931224 84.02175483 205.41926298 84.07463532 170.19914745 84.10632099 C166.04340939 84.11007322 161.88767146 84.11395617 157.73193359 84.11791992 C156.90458254 84.11870685 156.07723149 84.11949378 155.2248092 84.12030456 C141.8191484 84.13336722 128.41352611 84.15702579 115.00788817 84.18458339 C101.25788037 84.21261367 87.50789276 84.22929622 73.75785756 84.23539048 C65.26972553 84.23951187 56.7817023 84.25254035 48.29360375 84.2768744 C42.47717312 84.29270227 36.66079895 84.29753207 30.84434834 84.29362913 C27.4858437 84.29170294 24.12768348 84.29633325 20.76918602 84.31074142 C17.13143148 84.32558727 13.49414891 84.32210722 9.85638428 84.31388855 C8.25717231 84.32699634 8.25717231 84.32699634 6.62565303 84.34036893 C5.16635588 84.33140921 5.16635588 84.33140921 3.67757797 84.32226849 C2.8376366 84.32340765 1.99769523 84.32454681 1.13230109 84.32572049 C-1.7044389 83.8607003 -3.06368874 82.91576037 -5.140625 80.953125 C-6.31599382 77.42701855 -6.28934899 74.6055212 -6.31762695 70.88305664 C-6.32419815 70.16727951 -6.33076935 69.45150238 -6.33753967 68.71403503 C-6.35723945 66.34711602 -6.36892576 63.98026025 -6.37890625 61.61328125 C-6.38298178 60.80461546 -6.3870573 59.99594967 -6.39125633 59.16277885 C-6.41209959 54.88529593 -6.4264107 50.60784496 -6.43579102 46.33032227 C-6.44687193 41.91046186 -6.48129569 37.49110262 -6.52096272 33.07141972 C-6.54708505 29.67336582 -6.55547875 26.27543239 -6.55907249 22.87728691 C-6.56394724 21.24777262 -6.5755865 19.61826402 -6.59411049 17.98884773 C-6.61841744 15.70968721 -6.61755356 13.4318379 -6.6105957 11.15258789 C-6.61646194 9.8559169 -6.62232819 8.55924591 -6.62837219 7.22328186 C-6.140625 3.953125 -6.140625 3.953125 -4.24504089 1.50022888 C-2.140625 -0.046875 -2.140625 -0.046875 0 0 Z " fill="#E3E1DF" transform="translate(102.140625,316.046875)"/>
<path d="M0 0 C2.97 0 5.94 0 9 0 C9 2.31 9 4.62 9 7 C9.63808594 7.17015625 10.27617187 7.3403125 10.93359375 7.515625 C11.75988281 7.75796875 12.58617187 8.0003125 13.4375 8.25 C14.67306641 8.59804687 14.67306641 8.59804687 15.93359375 8.953125 C18 10 18 10 18.90625 11.90625 C19.05975116 15.33444253 16.98673549 17.35101934 15 20 C14.154375 19.505 13.30875 19.01 12.4375 18.5 C8.5910193 16.8215357 6.15228813 16.52992965 2 17 C-0.08984231 18.08674994 -0.08984231 18.08674994 -1 20 C-1.11491647 21.99584107 -1.11491647 21.99584107 0 24 C2.25617437 25.3200392 4.37001195 26.39926635 6.75 27.4375 C12.41522065 29.93513358 16.70211105 32.7173015 20.3125 37.875 C21.78349612 42.42171527 21.56191497 46.43867006 19.4375 50.6875 C17.0113718 54.5484352 14.0914059 56.1058306 10 58 C9.34 58 8.68 58 8 58 C8 60.64 8 63.28 8 66 C5.36 66 2.72 66 0 66 C0 63.36 0 60.72 0 58 C-1.03125 57.9175 -2.0625 57.835 -3.125 57.75 C-7.52975387 56.89746699 -9.48512937 55.65758511 -13 53 C-12.46930939 49.17902761 -11.50298434 46.93828597 -9 44 C-5 46 -5 46 -3.25 47.125 C0.23149373 48.47891423 3.27444182 48.18026894 7 48 C7.99 47.505 7.99 47.505 9 47 C9.41746608 44.12635209 9.41746608 44.12635209 9 41 C7.05414156 39.24048252 7.05414156 39.24048252 4 38 C-7.05611711 32.83443709 -7.05611711 32.83443709 -11 28 C-12.24199848 24.27400457 -12.53508555 20.87020783 -12 17 C-9.30455136 11.89790078 -6.4785689 8.82618963 -1 7 C-0.67 4.69 -0.34 2.38 0 0 Z " fill="#054D00" transform="translate(236,88)"/>
<path d="M0 0 C1.36898437 -0.04350586 1.36898437 -0.04350586 2.765625 -0.08789062 C11.37805993 -0.16763539 18.61398997 2.1833007 24.875 8.3125 C26.5657374 10.51848293 28.04353809 12.82200496 29.5 15.1875 C29.8815625 15.78691406 30.263125 16.38632813 30.65625 17.00390625 C36.875 26.88957435 36.875 26.88957435 36.875 31.3125 C32.8751407 31.40033475 28.87553296 31.45317102 24.875 31.5 C23.74964844 31.52513672 22.62429687 31.55027344 21.46484375 31.57617188 C13.49390558 31.64609239 8.01567537 30.9078801 1.1640625 26.61328125 C-1.8637524 23.5699656 -3.73374522 20.26483436 -5.75 16.5 C-6.1315625 15.81357422 -6.513125 15.12714844 -6.90625 14.41992188 C-9.25191908 10.14514219 -11.27374248 5.8227293 -13.125 1.3125 C-8.77277299 -0.13824234 -4.56031238 0.04711067 0 0 Z " fill="#83E10B" transform="translate(137.125,203.6875)"/>
<path d="M0 0 C-2.08050409 4.9854804 -4.32291687 9.83096909 -6.8125 14.625 C-7.13025391 15.26695312 -7.44800781 15.90890625 -7.77539062 16.5703125 C-11.27055031 23.2722297 -16.00296038 26.99488506 -23 30 C-26.15966797 30.34057617 -26.15966797 30.34057617 -29.4921875 30.29296875 C-30.69101562 30.28330078 -31.88984375 30.27363281 -33.125 30.26367188 C-34.98125 30.2259668 -34.98125 30.2259668 -36.875 30.1875 C-38.13570313 30.17396484 -39.39640625 30.16042969 -40.6953125 30.14648438 C-43.79731454 30.11123435 -46.89843534 30.06195504 -50 30 C-46.47413032 18.90459235 -39.43523235 7.02599861 -29.16796875 1.03515625 C-19.77631565 -3.44914658 -9.77587476 -2.58841128 0 0 Z " fill="#82E00B" transform="translate(356,205)"/>
<path d="M0 0 C4.43324387 3.52665773 7.11520338 8.36564167 9.87158203 13.22900391 C10.92804414 15.08331246 12.03068948 16.90349393 13.14160156 18.72558594 C18.89670591 28.42410343 18.89670591 28.42410343 18.61425781 33.43261719 C16.99705339 37.62002149 15.57759243 38.79752834 11.67675781 40.95605469 C10.65324219 41.55675781 9.62972656 42.15746094 8.57519531 42.77636719 C4.27954276 44.16040799 2.36164773 43.76455962 -1.69824219 41.83105469 C-3.46476331 39.51268316 -4.70688239 37.56948817 -6.01074219 35.01855469 C-9.6806466 28.29742397 -13.87899419 22.67911659 -18.92480469 16.92871094 C-20.95036219 13.39067768 -21.21453174 11.62748838 -20.44580078 7.7019043 C-19.0903867 4.30982784 -16.73100303 2.94844909 -13.69824219 1.08105469 C-12.05855469 0.00597656 -12.05855469 0.00597656 -10.38574219 -1.09082031 C-5.93530826 -2.3920065 -4.04880006 -2.11294067 0 0 Z " fill="#82E00C" transform="translate(166.6982421875,103.1689453125)"/>
<path d="M0 0 C1.58583248 0.76567866 3.16856494 1.53777965 4.75 2.3125 C5.63171875 2.74175781 6.5134375 3.17101562 7.421875 3.61328125 C8.69804687 4.29970703 8.69804687 4.29970703 10 5 C11.12148438 5.57814453 11.12148438 5.57814453 12.265625 6.16796875 C14.50215542 8.53042994 14.9423337 10.74795193 15.18652344 13.953125 C14.86347521 17.49819874 12.93142942 19.39574336 10.625 22 C5.88620293 27.54826833 2.41580392 33.27932773 -0.69091797 39.8828125 C-1.69921875 41.859375 -1.69921875 41.859375 -4 45 C-7.86919015 46.25308999 -9.97529411 46.36729346 -13.80078125 44.99609375 C-20.55724896 40.80351114 -20.55724896 40.80351114 -22.6875 36.9375 C-23.22449206 31.88977461 -21.90370001 28.42400473 -19.3828125 24.09375 C-18.85816406 23.18496094 -18.33351563 22.27617188 -17.79296875 21.33984375 C-17.24253906 20.40269531 -16.69210937 19.46554688 -16.125 18.5 C-15.31095703 17.09427734 -15.31095703 17.09427734 -14.48046875 15.66015625 C-12.99597275 13.10130618 -11.50388797 10.54749663 -10 8 C-9.50999512 7.09958984 -9.01999023 6.19917969 -8.51513672 5.27148438 C-6.47894234 2.21883331 -4.46822107 1.90475332 -1 1 C-0.67 0.67 -0.34 0.34 0 0 Z " fill="#82E00C" transform="translate(319,101)"/>
<path d="M0 0 C4.41026006 2.45014448 7.08812558 5.30125117 9.375 9.875 C9.375 13.175 9.375 16.475 9.375 19.875 C1.125 19.875 -7.125 19.875 -15.625 19.875 C-12.88015686 26.09910215 -12.88015686 26.09910215 -7.625 28.875 C-3.16461302 28.85106232 1.07523977 28.00600269 5.375 26.875 C7.375 29.875 7.375 29.875 7.3125 31.875 C5.93844331 34.80632093 4.27126831 35.47169369 1.375 36.875 C-4.79645399 37.69603601 -12.39716869 38.38732655 -17.8125 34.8125 C-21.73460664 31.18354051 -24.27785586 27.54958779 -24.96875 22.2265625 C-25.20996897 14.88948563 -23.80748943 10.30462625 -19.875 4.125 C-14.15037615 -1.59962385 -7.48421766 -2.32268824 0 0 Z " fill="#F3F1ED" transform="translate(352.625,348.125)"/>
<path d="M0 0 C11.87568099 0.28900994 21.43023105 4.36959117 29.9296875 12.69140625 C35.8760505 19.32216197 36.42233186 24.58385571 36.140625 33.4375 C36.09421875 34.283125 36.0478125 35.12875 36 36 C35.34 36 34.68 36 34 36 C32.625 34.6015625 32.625 34.6015625 31 32.625 C26.62056677 27.45856503 21.82968383 22.74222476 17 18 C17.44730469 18.68964844 17.89460938 19.37929687 18.35546875 20.08984375 C22.12636216 25.95121112 25.70821602 31.85634788 29 38 C21.38561184 38.47589926 15.81806664 36.72389146 9.8125 31.9375 C4.76367881 27.27628516 2.14537428 21.43612285 0 15 C-0.07029121 12.42734182 -0.09370832 9.88358569 -0.0625 7.3125 C-0.05798828 6.61060547 -0.05347656 5.90871094 -0.04882812 5.18554688 C-0.03706927 3.45699462 -0.01913454 1.72848635 0 0 Z " fill="#008B22" transform="translate(118,148)"/>
<path d="M0 0 C4.41026006 2.45014448 7.08812558 5.30125117 9.375 9.875 C9.375 13.175 9.375 16.475 9.375 19.875 C1.125 19.875 -7.125 19.875 -15.625 19.875 C-13.13566199 25.70920965 -13.13566199 25.70920965 -8.625 28.875 C-3.59158345 29.46994417 0.80295792 29.23476365 5.375 26.875 C7.375 29.875 7.375 29.875 7.375 31.875 C5.81476848 34.99546304 3.53884006 35.56039516 0.375 36.875 C-5.72547028 37.64449114 -11.56272961 37.76390965 -17.25 35.3125 C-22.78943807 29.62728725 -25.06088076 23.45530462 -24.96875 15.578125 C-24.31271255 10.41928502 -21.92514722 5.95663324 -18.0625 2.4609375 C-12.22052506 -1.59923508 -6.73343224 -2.08968587 0 0 Z " fill="#F5F2EF" transform="translate(313.625,348.125)"/>
<path d="M0 0 C0.72992447 10.65149044 0.49414158 18.95508094 -6 28 C-10.26016284 32.81957816 -14.85668332 36.10115666 -21 38 C-24.9375 38.1875 -24.9375 38.1875 -28 38 C-24.84378626 31.30882688 -21.03297423 25.19506198 -17 19 C-17.76461548 19.7724707 -17.76461548 19.7724707 -18.54467773 20.56054688 C-20.83970648 22.87627044 -23.13854168 25.18817781 -25.4375 27.5 C-26.23994141 28.31082031 -27.04238281 29.12164062 -27.86914062 29.95703125 C-28.63291016 30.72402344 -29.39667969 31.49101562 -30.18359375 32.28125 C-30.89056396 32.99345703 -31.59753418 33.70566406 -32.32592773 34.43945312 C-34 36 -34 36 -35 36 C-35.64019372 27.77232517 -35.81339844 21.12056256 -30.9609375 14.18359375 C-23.35982343 5.71940498 -11.41316048 -0.25362579 0 0 Z " fill="#008B23" transform="translate(362,148)"/>
<path d="M0 0 C0.66 0.33 1.32 0.66 2 1 C4.93740434 11.87787154 2.56596225 21.70013336 -2.875 31.3125 C-5.40206427 34.50849305 -7.9884545 37.25032802 -11 40 C-11.66 40 -12.32 40 -13 40 C-12.34 35.38 -11.68 30.76 -11 26 C-12.2375 27.918125 -13.475 29.83625 -14.75 31.8125 C-17.1823567 35.58265288 -19.19711125 38.55895655 -23 41 C-25.92728318 35.76601767 -25.71407558 31.01023478 -24.34765625 25.25 C-20.50802433 13.385043 -12.37077694 6.8391206 -1.82421875 0.7421875 C-1.22222656 0.49726563 -0.62023437 0.25234375 0 0 Z " fill="#008A22" transform="translate(305,171)"/>
<path d="M0 0 C8.45205819 1.3084147 15.26836921 6.35605362 20.52734375 12.9453125 C25.67545742 20.12809178 27.0585806 26.07591935 26 35 C24.9765625 37.86328125 24.9765625 37.86328125 24 40 C23.34 40 22.68 40 22 40 C20.37053772 37.69404616 18.8564103 35.39803293 17.375 33 C16.95476562 32.33226562 16.53453125 31.66453125 16.1015625 30.9765625 C15.06135408 29.32168546 14.02985949 27.66133712 13 26 C13.33 30.29 13.66 34.58 14 39 C6.51297941 34.40569191 2.21356459 28.48360209 -0.60546875 20.2265625 C-1.18528844 16.95431274 -1.13149061 13.75744628 -1.125 10.4375 C-1.12886719 9.76525391 -1.13273438 9.09300781 -1.13671875 8.40039062 C-1.13061073 5.32500248 -0.97991229 2.93973687 0 0 Z " fill="#008B23" transform="translate(174,172)"/>
<path d="M0 0 C12.87 0 25.74 0 39 0 C39 2.64 39 5.28 39 8 C33.72 8 28.44 8 23 8 C23 22.52 23 37.04 23 52 C20.36 52 17.72 52 15 52 C15 37.48 15 22.96 15 8 C10.05 8 5.1 8 0 8 C0 5.36 0 2.72 0 0 Z " fill="#FBF8F5" transform="translate(224,332)"/>
<path d="M0 0 C3.68838359 3.28248491 6.24079699 7.40652548 8 12 C7.6875 14.875 7.6875 14.875 7 17 C-0.15495229 18.9623538 -9.59253859 19.4691538 -16.71875 17.09375 C-18.7373405 15.8825957 -20.32680642 14.65152009 -22 13 C-22.49757813 12.51917969 -22.99515625 12.03835938 -23.5078125 11.54296875 C-26.45808639 8.34824359 -27.90786579 5.16996699 -29 1 C-23.2722863 1.74709309 -17.65840766 2.83731349 -12 4 C-16.29 1.69 -20.58 -0.62 -25 -3 C-24 -5 -24 -5 -22.2265625 -5.6328125 C-14.11806015 -6.97000412 -6.72983108 -4.45462129 0 0 Z " fill="#008B22" transform="translate(319,254)"/>
<path d="M0 0 C1.13824219 -0.00515625 2.27648437 -0.0103125 3.44921875 -0.015625 C6.3125 0.25 6.3125 0.25 8.3125 2.25 C4.0225 4.56 -0.2675 6.87 -4.6875 9.25 C0.9225 7.93 6.5325 6.61 12.3125 5.25 C11.15647905 12.18612569 9.37385653 15.92486349 3.75 20.0625 C-0.86212334 23.23654479 -5.03105205 23.43254175 -10.5 23.4375 C-11.19931641 23.44974609 -11.89863281 23.46199219 -12.61914062 23.47460938 C-17.03311655 23.48699659 -20.58881584 22.87789183 -24.6875 21.25 C-24.35407576 14.58151516 -20.69954177 10.25447382 -16.1328125 5.69921875 C-11.01711774 1.20641947 -6.73034225 -0.03069711 0 0 Z " fill="#008B22" transform="translate(177.6875,248.75)"/>
<path d="M0 0 C2.97 0 5.94 0 9 0 C9 17.49 9 34.98 9 53 C6.03 53 3.06 53 0 53 C0 35.51 0 18.02 0 0 Z " fill="#FDFAF5" transform="translate(189,332)"/>
<path d="M0 0 C2.97 0 5.94 0 9 0 C9.33 1.32 9.66 2.64 10 4 C10.495 3.34 10.99 2.68 11.5 2 C15.10340212 -0.8827217 17.46985042 -0.30200997 22 0 C21.67 2.31 21.34 4.62 21 7 C20.06027344 7.25523437 20.06027344 7.25523437 19.1015625 7.515625 C17.87566406 7.87914062 17.87566406 7.87914062 16.625 8.25 C15.81289063 8.48203125 15.00078125 8.7140625 14.1640625 8.953125 C11.42640775 10.27747784 11.09683664 11.20018014 10 14 C9.63675609 16.60750922 9.63675609 16.60750922 9.5859375 19.421875 C9.52792969 20.95908203 9.52792969 20.95908203 9.46875 22.52734375 C9.42234375 24.12255859 9.42234375 24.12255859 9.375 25.75 C9.31699219 27.36841797 9.31699219 27.36841797 9.2578125 29.01953125 C9.16365369 31.67951775 9.07802613 34.3394994 9 37 C6.03 37 3.06 37 0 37 C0 24.79 0 12.58 0 0 Z " fill="#F5F3EF" transform="translate(264,348)"/>
<path d="M0 0 C2.64 0 5.28 0 8 0 C8 17.16 8 34.32 8 52 C5.36 52 2.72 52 0 52 C0 34.84 0 17.68 0 0 Z " fill="#FEFBF7" transform="translate(209,332)"/>
<path d="M0 0 C2.51625 -0.0825 5.0325 -0.165 7.625 -0.25 C8.79603271 -0.30462402 8.79603271 -0.30462402 9.99072266 -0.36035156 C15.06889075 -0.44028211 18.06581402 0.51647929 22 4 C22.796875 6 22.796875 6 22.75 8 C22.76546875 8.66 22.7809375 9.32 22.796875 10 C21.43769532 13.4112745 19.20243419 14.37359522 16 16 C13.17613457 16.44572778 10.47407885 16.38289821 7.625 16.25 C3.850625 16.12625 3.850625 16.12625 0 16 C0 10.72 0 5.44 0 0 Z " fill="#121212" transform="translate(129,361)"/>
<path d="M0 0 C2.97 0 5.94 0 9 0 C9 11.88 9 23.76 9 36 C6.03 36 3.06 36 0 36 C0 24.12 0 12.24 0 0 Z " fill="#FDF9F4" transform="translate(170,349)"/>
<path d="M0 0 C2.58445773 -0.1081866 5.16437352 -0.18737237 7.75 -0.25 C8.47960937 -0.28351563 9.20921875 -0.31703125 9.9609375 -0.3515625 C13.5150344 -0.41618244 15.58104308 -0.29906878 18.51171875 1.79296875 C20 4 20 4 20.0625 7.5625 C19 11 19 11 16.890625 12.703125 C13.29183821 14.31771583 10.61588984 14.29764177 6.6875 14.1875 C3.3771875 14.0946875 3.3771875 14.0946875 0 14 C0 9.38 0 4.76 0 0 Z " fill="#0F0F10" transform="translate(129,340)"/>
<path d="M0 0 C2.97 0 5.94 0 9 0 C9 17.49 9 34.98 9 53 C6.03 53 3.06 53 0 53 C0 35.51 0 18.02 0 0 Z M2 1 C2 17.5 2 34 2 51 C3.65 51 5.3 51 7 51 C7 34.5 7 18 7 1 C5.35 1 3.7 1 2 1 Z " fill="#E4E3E2" transform="translate(189,332)"/>
<path d="M0 0 C2.31 0.66 4.62 1.32 7 2 C7 3.32 7 4.64 7 6 C5.68 6 4.36 6 3 6 C3 7.32 3 8.64 3 10 C4.2375 9.9175 5.475 9.835 6.75 9.75 C9.62704776 9.78570804 10.89696303 9.94590559 13.5 11.3125 C15.91756131 15.64396402 15.30103515 20.14998928 15 25 C14.01 25 13.02 25 12 25 C12 24.34 12 23.68 12 23 C10.02 23 8.04 23 6 23 C6 21.68 6 20.36 6 19 C7.65 18.67 9.3 18.34 11 18 C10.67 17.01 10.34 16.02 10 15 C8.1128125 14.8453125 8.1128125 14.8453125 6.1875 14.6875 C3.68789538 14.48261438 2.32036245 14.22432538 0.25390625 12.77734375 C-1.43637346 10.38146441 -1.33468615 8.77973508 -1.25 5.875 C-1.23453125 4.98554687 -1.2190625 4.09609375 -1.203125 3.1796875 C-1 1 -1 1 0 0 Z " fill="#077F21" transform="translate(159,112)"/>
<path d="M0 0 C0.66 0.33 1.32 0.66 2 1 C2.40729228 3.32156597 2.74438677 5.6568787 3 8 C1.68 8.33 0.36 8.66 -1 9 C-1.33 8.34 -1.66 7.68 -2 7 C-2.66 7 -3.32 7 -4 7 C-3.90460938 7.83144531 -3.80921875 8.66289063 -3.7109375 9.51953125 C-3.60007812 10.60621094 -3.48921875 11.69289063 -3.375 12.8125 C-3.25898438 13.89144531 -3.14296875 14.97039062 -3.0234375 16.08203125 C-3 19 -3 19 -5 22 C-8.18578426 23.28787023 -10.5551941 24 -14 24 C-14.33 21.36 -14.66 18.72 -15 16 C-14.01 15.67 -13.02 15.34 -12 15 C-11.01 16.485 -11.01 16.485 -10 18 C-9.01 18 -8.02 18 -7 18 C-7.144375 17.29875 -7.28875 16.5975 -7.4375 15.875 C-7.623125 14.92625 -7.80875 13.9775 -8 13 C-8.37125 11.4840625 -8.37125 11.4840625 -8.75 9.9375 C-9 7 -9 7 -7.875 4.625 C-6 3 -6 3 -3.3125 2.75 C-2.1678125 2.87375 -2.1678125 2.87375 -1 3 C-0.67 2.01 -0.34 1.02 0 0 Z " fill="#067F21" transform="translate(320,112)"/>
<path d="M0 0 C2.97 0 5.94 0 9 0 C9 11.88 9 23.76 9 36 C6.03 36 3.06 36 0 36 C0 24.12 0 12.24 0 0 Z M1 1 C1 11.89 1 22.78 1 34 C2.98 34 4.96 34 7 34 C7 23.11 7 12.22 7 1 C5.02 1 3.04 1 1 1 Z " fill="#DDDCDC" transform="translate(170,349)"/>
<path d="M0 0 C3.14737182 0.69941596 6.02588876 1.76078698 9 3 C9 3.99 9 4.98 9 6 C7.35 5.67 5.7 5.34 4 5 C4.33 5.99 4.66 6.98 5 8 C7.01240016 8.65828563 7.01240016 8.65828563 9.375 8.9375 C13.75042904 9.79447097 13.75042904 9.79447097 16.125 11.75 C17.30875305 14.79393642 16.77967623 16.88129509 16 20 C11.545 19.01 11.545 19.01 7 18 C7.33 17.01 7.66 16.02 8 15 C9.32 15 10.64 15 12 15 C12.33 14.34 12.66 13.68 13 13 C11.96939453 12.83564453 11.96939453 12.83564453 10.91796875 12.66796875 C10.01691406 12.50941406 9.11585938 12.35085937 8.1875 12.1875 C7.29417969 12.03667969 6.40085938 11.88585937 5.48046875 11.73046875 C2.74770453 10.92570196 1.63252296 10.31990105 0 8 C-0.39078556 5.27492202 -0.13616953 2.76878044 0 0 Z " fill="#0C8321" transform="translate(143,210)"/>
<path d="M0 0 C0.33 1.65 0.66 3.3 1 5 C-1.31 5.33 -3.62 5.66 -6 6 C-5.484375 6.556875 -4.96875 7.11375 -4.4375 7.6875 C-3 10 -3 10 -2.8125 12.5 C-4.44886838 15.94498606 -6.64165609 16.77880792 -9.9921875 18.3984375 C-12 19 -12 19 -15 18 C-15.6875 15.9375 -15.6875 15.9375 -16 14 C-13.10765685 13.17361624 -11.11257569 13 -8 13 C-8.515625 12.4225 -9.03125 11.845 -9.5625 11.25 C-11 9 -11 9 -10.875 6.9375 C-9.38312892 3.63407118 -7.71728694 2.33240127 -4.4375 0.8125 C-2 0 -2 0 0 0 Z " fill="#0C8422" transform="translate(338,211)"/>
<path d="M0 0 C3.0625 0.3125 3.0625 0.3125 5 1.375 C6.71037795 4.49392449 5.86763863 6.96807801 5.0625 10.3125 C2.26379973 11.71185013 0.15751208 11.56515405 -2.9375 11.3125 C-4.875 10.1875 -4.875 10.1875 -5.9375 8.3125 C-5.64328296 3.50695496 -5.25668878 0.55922221 0 0 Z " fill="#EFEDEA" transform="translate(173.9375,330.6875)"/>
<path d="M0 0 C2.875 2.3125 2.875 2.3125 5 5 C5 5.99 5 6.98 5 8 C-0.28 8 -5.56 8 -11 8 C-10 3 -10 3 -8.3125 1.1875 C-5.21737291 -0.40188959 -3.43979993 -0.56159999 0 0 Z " fill="#0F0F0F" transform="translate(310,354)"/>
<path d="M0 0 C3.04667553 2.13267287 3.04414219 3.17656874 4 7 C-1.61 7 -7.22 7 -13 7 C-10.04226422 -0.39433944 -7.87570752 -2.00472555 0 0 Z " fill="#0A0A0A" transform="translate(350,355)"/>
<path d="M0 0 C1.2065625 0.0309375 1.2065625 0.0309375 2.4375 0.0625 C2.4375 1.3825 2.4375 2.7025 2.4375 4.0625 C1.1175 4.0625 -0.2025 4.0625 -1.5625 4.0625 C-1.5625 5.3825 -1.5625 6.7025 -1.5625 8.0625 C1.0775 8.0625 3.7175 8.0625 6.4375 8.0625 C6.4375 8.3925 6.4375 8.7225 6.4375 9.0625 C3.4675 9.0625 0.4975 9.0625 -2.5625 9.0625 C-3.44140625 2.91015625 -3.44140625 2.91015625 -3.5625 1.0625 C-2.5625 0.0625 -2.5625 0.0625 0 0 Z " fill="#15891D" transform="translate(163.5625,113.9375)"/>
<path d="M0 0 C0.66 0 1.32 0 2 0 C2.33 2.31 2.66 4.62 3 7 C-1.455 6.01 -1.455 6.01 -6 5 C-5.67 4.01 -5.34 3.02 -5 2 C-3.68 2 -2.36 2 -1 2 C-0.67 1.34 -0.34 0.68 0 0 Z " fill="#037E22" transform="translate(156,223)"/>
<path d="M0 0 C1.89213369 2.38573379 3.02391783 4.07175348 4 7 C-3.38461538 7.36923077 -3.38461538 7.36923077 -6.5 5.5 C-6.995 5.005 -7.49 4.51 -8 4 C-4.535 3.505 -4.535 3.505 -1 3 C-0.67 2.01 -0.34 1.02 0 0 Z " fill="#007E20" transform="translate(184,236)"/>
<path d="M0 0 C0 3 0 3 -1 5 C-0.34 5 0.32 5 1 5 C1.33 6.32 1.66 7.64 2 9 C0.35 8.67 -1.3 8.34 -3 8 C-2.25 2.25 -2.25 2.25 0 0 Z " fill="#158520" transform="translate(314,115)"/>
<path d="M0 0 C0.625 1.8125 0.625 1.8125 1 4 C0.01 5.485 0.01 5.485 -1 7 C-3.625 7.1875 -3.625 7.1875 -6 7 C-6 6.01 -6 5.02 -6 4 C-4.35 3.67 -2.7 3.34 -1 3 C-0.67 2.01 -0.34 1.02 0 0 Z " fill="#017B21" transform="translate(171,127)"/>
<path d="M0 0 C1.32 0.66 2.64 1.32 4 2 C3.67 2.99 3.34 3.98 3 5 C2.01 5 1.02 5 0 5 C-0.5625 3.0625 -0.5625 3.0625 -1 1 C-0.67 0.67 -0.34 0.34 0 0 Z " fill="#0D8120" transform="translate(319,116)"/>
</svg>
