<?xml version="1.0" encoding="UTF-8"?>
<svg version="1.1" xmlns="http://www.w3.org/2000/svg" width="1024" height="1024">
<path d="M0 0 C337.92 0 675.84 0 1024 0 C1024 337.92 1024 675.84 1024 1024 C686.08 1024 348.16 1024 0 1024 C0 686.08 0 348.16 0 0 Z " fill="#000000" transform="translate(0,0)"/>
<path d="M0 0 C7.26 0 14.52 0 22 0 C22.17015625 1.74539063 22.3403125 3.49078125 22.515625 5.2890625 C23.89982842 19.21773106 25.47301511 33.09325374 27.37573242 46.96240234 C28.38710528 54.35375319 29.35221129 61.74783004 30.26171875 69.15234375 C30.36969788 70.02921341 30.477677 70.90608307 30.58892822 71.80952454 C31.01737709 75.29369515 31.44532747 78.77790245 31.86541748 82.26309204 C33.02805269 91.9066396 34.31712463 101.49355208 36.05726624 111.0524292 C36.77223736 115.08834752 37.13866879 118.90183471 37 123 C37.66 123 38.32 123 39 123 C39.33 122.01 39.66 121.02 40 120 C41.35546875 118.59765625 41.35546875 118.59765625 43.1875 117.0625 C45.85330419 114.81811068 48.49705914 112.56326942 51.08203125 110.2265625 C66.34448551 96.56364731 84.0090123 86.43272119 103.25 79.4375 C103.96534912 79.17356445 104.68069824 78.90962891 105.41772461 78.63769531 C111.55166616 76.51579446 111.55166616 76.51579446 115 78 C113.82244141 79.16015625 113.82244141 79.16015625 112.62109375 80.34375 C106.85303453 86.05113152 101.21653649 91.77716933 96 98 C95.24332031 98.87914062 94.48664063 99.75828125 93.70703125 100.6640625 C71.52935683 126.72712794 54.72951844 155.75223752 57 191 C58.84089717 207.98722234 66.14169567 219.79412468 78 232 C78.68578125 232.75925781 79.3715625 233.51851562 80.078125 234.30078125 C97.1984826 252.65760913 121.11936751 259.26032249 145 263.5 C159.46092389 266.06733794 174.11239343 268.86926268 187.25 275.75 C187.90347412 276.08507568 188.55694824 276.42015137 189.23022461 276.76538086 C198.29622545 281.56450763 207.6085133 287.87561021 214 296 C214 296.66 214 297.32 214 298 C210.00768833 296.49823658 206.32979957 294.61970891 202.5625 292.625 C187.22856761 284.78846907 170.91874268 282.62737923 153.87109375 282.9453125 C151.86736279 282.96414683 149.86363123 282.98295446 147.85988712 283.00033379 C143.0009687 283.04550593 138.14240786 283.1126251 133.28393555 283.19189453 C117.10406774 283.4461887 101.71563861 283.26479365 86 279 C84.78530029 278.68530762 83.57060059 278.37061523 82.3190918 278.04638672 C79.23480913 277.20999421 76.18005829 276.31182927 73.125 275.375 C72.12082031 275.0759375 71.11664062 274.776875 70.08203125 274.46875 C65.36127023 273.05564803 60.6626261 271.59635673 56 270 C70.67535138 294.52084028 93.81754232 308.30014395 119.26953125 319.4296875 C141.62018687 329.21409468 157.74132886 346.39641527 166.79541016 368.984375 C170.39648173 378.8105548 170.39648173 378.8105548 169 383 C168.64808594 382.38253906 168.29617188 381.76507812 167.93359375 381.12890625 C164.37297544 375.02100486 160.51516018 369.43681143 156 364 C155.34386719 363.1853125 154.68773437 362.370625 154.01171875 361.53125 C141.85789187 347.13329786 126.04881178 340.74398384 108.51757812 335.12695312 C107.08381836 334.64838867 107.08381836 334.64838867 105.62109375 334.16015625 C104.7798999 333.88824463 103.93870605 333.61633301 103.07202148 333.33618164 C98.45829555 331.32943269 94.26754668 328.65194668 90 326 C89.92338403 333.18580222 89.87116444 340.3714975 89.83520508 347.55761719 C89.82020022 349.9977614 89.79978985 352.43787902 89.77368164 354.87792969 C89.73693149 358.40306192 89.72018998 361.92783488 89.70703125 365.453125 C89.69154739 366.5286261 89.67606354 367.6041272 89.66011047 368.71221924 C89.65780525 379.2943002 92.17148416 388.87397509 96.3125 398.5625 C96.6115625 399.27994385 96.910625 399.9973877 97.21875 400.73657227 C99.47096745 406.033916 102.07311241 411.05328732 105.03125 415.99609375 C105.51078125 416.98802734 105.51078125 416.98802734 106 418 C105.67 418.66 105.34 419.32 105 420 C85.71538042 402.05665999 76.76314858 382.69726767 72.265625 356.82421875 C68.8121759 336.99025294 61.86938309 319.63488504 49 304 C48.28972656 303.13632812 47.57945312 302.27265625 46.84765625 301.3828125 C39.97592596 293.4051437 32.09464138 286.34658726 23 281 C23.02356567 282.96283936 23.02356567 282.96283936 23.04760742 284.96533203 C23.1029127 289.9341793 23.13670627 294.90300102 23.16479492 299.87207031 C23.17965704 302.00134897 23.1999525 304.13059834 23.22631836 306.25976562 C23.38630321 319.53537134 22.74804548 332.2597895 20.6496582 345.37841797 C18.09042773 361.95199367 27.14925278 373.56851665 35.80859375 386.75390625 C43.53687536 398.9384957 47.40278542 412.83079072 47.3125 427.1875 C47.30831055 428.10442627 47.30412109 429.02135254 47.29980469 429.96606445 C47.1120241 441.35575619 44.72154372 451.59822348 40 462 C38.87582325 458.62746974 38.94786926 456.22125758 39.04296875 452.671875 C39.65044613 421.22892589 31.54624644 401.24881087 10 378 C-7.48400198 394.83644635 -19.19596195 418.79845482 -20 443 C-23.1507707 440.4220967 -24.04664339 437.92034495 -25 434 C-26.18183397 421.91667506 -25.34550811 410.37176628 -21 399 C-20.58935303 397.90534424 -20.58935303 397.90534424 -20.17041016 396.78857422 C-16.56150472 387.22937591 -12.52925529 377.90070916 -8.25 368.625 C4.53886371 340.75612565 1.26801592 312.6265344 -2 283 C-4.90604028 283 -6.06557907 284.45246325 -8.3125 286.25 C-9.11429688 286.889375 -9.91609375 287.52875 -10.7421875 288.1875 C-11.48726562 288.785625 -12.23234375 289.38375 -13 290 C-13.969375 290.7425 -14.93875 291.485 -15.9375 292.25 C-18.2081442 294.01368491 -18.2081442 294.01368491 -20 297 C-20.66 297 -21.32 297 -22 297 C-22.26683594 297.59039063 -22.53367187 298.18078125 -22.80859375 298.7890625 C-24.02079518 301.0385904 -25.30174831 302.53516017 -27.0625 304.375 C-42.66266632 321.89668994 -48.26733498 343.19785206 -51.5 365.9375 C-54.71516709 388.04347909 -66.09633407 404.75898682 -82 420 C-82 415.92258108 -80.15969267 413.00447414 -78.375 409.4375 C-75.32460722 403.16652961 -72.73947119 396.87589127 -70.5625 390.25 C-70.31612793 389.50032959 -70.06975586 388.75065918 -69.81591797 387.97827148 C-67.86261781 381.86501118 -66.87325508 376.60005888 -66.8671875 370.1796875 C-66.86586823 369.52698883 -66.86454895 368.87429016 -66.8631897 368.20181274 C-66.86128315 366.09282591 -66.86758499 363.98397318 -66.875 361.875 C-66.87588623 361.16045654 -66.87677246 360.44591309 -66.87768555 359.7097168 C-66.89413495 348.44947104 -67.18936042 337.23314851 -68 326 C-68.89138672 326.57790283 -68.89138672 326.57790283 -69.80078125 327.16748047 C-75.99144925 331.04868271 -82.0972137 333.77573239 -89 336.125 C-90.85473212 336.77181835 -92.70890305 337.42024822 -94.5625 338.0703125 C-95.46387695 338.38629395 -96.36525391 338.70227539 -97.29394531 339.02783203 C-119.4515241 346.98808814 -134.78477671 361.36398914 -146 382 C-148.24535992 375.71299222 -144.74931639 368.8080615 -142.10009766 363.04101562 C-130.69489204 339.99358379 -113.89752973 327.0502519 -91.03222656 316.25927734 C-75.85894618 309.0972087 -63.19429565 301.66867946 -51 290 C-50.31421875 289.37738281 -49.6284375 288.75476563 -48.921875 288.11328125 C-42.90949079 282.4677945 -38.51146145 275.85073775 -34 269 C-35.04414063 269.36351562 -36.08828125 269.72703125 -37.1640625 270.1015625 C-45.93372514 273.11231504 -54.74425821 275.86136694 -63.6875 278.3125 C-64.6067627 278.56660645 -65.52602539 278.82071289 -66.47314453 279.08251953 C-67.35212402 279.3195459 -68.23110352 279.55657227 -69.13671875 279.80078125 C-70.29240356 280.11269409 -70.29240356 280.11269409 -71.47143555 280.4309082 C-76.79330023 281.6286746 -82.01269571 282.12432639 -87.45996094 282.1418457 C-88.69945496 282.14888016 -89.93894897 282.15591461 -91.21600342 282.16316223 C-91.86976707 282.16497812 -92.52353073 282.16679401 -93.19710541 282.16866493 C-95.27808687 282.17593394 -97.35884621 282.19168126 -99.4397583 282.21000671 C-105.35319692 282.26194754 -111.26651469 282.31023686 -117.18017578 282.32592773 C-144.19885091 282.40859153 -167.97177119 284.2575385 -191 300 C-191.66 300.33 -192.32 300.66 -193 301 C-187.17626854 287.23481654 -170.21633422 277.47946007 -157.125 271.875 C-144.15649519 266.77909315 -130.29383623 264.34547539 -116.625 261.9375 C-90.92269176 257.39283914 -66.49650953 249.1763896 -50.4375 227.3125 C-37.72593134 208.44465594 -32.14876794 185.94884175 -36.1875 163.4375 C-37.70701553 156.53960627 -39.97714595 150.3678155 -43 144 C-43.49242187 142.91332031 -43.98484375 141.82664062 -44.4921875 140.70703125 C-51.05158891 126.81930338 -60.0640435 114.6566145 -70 103 C-70.86179754 101.96577638 -71.72242717 100.9305787 -72.58203125 99.89453125 C-79.13794264 92.02554657 -85.99459423 84.46998765 -93 77 C-91 76 -91 76 -89.00732422 76.49389648 C-87.79326904 76.92810913 -87.79326904 76.92810913 -86.5546875 77.37109375 C-85.65016846 77.69408447 -84.74564941 78.0170752 -83.8137207 78.34985352 C-82.84394287 78.70877686 -81.87416504 79.0677002 -80.875 79.4375 C-79.88395264 79.80222412 -78.89290527 80.16694824 -77.87182617 80.54272461 C-55.7410611 88.86297753 -36.87385706 101.37234307 -19.73071289 117.55957031 C-17.08495565 120.07996529 -17.08495565 120.07996529 -14 122 C-13.94739014 121.20730713 -13.89478027 120.41461426 -13.84057617 119.59790039 C-13.28867685 111.82144975 -12.40815676 104.1536974 -11.3125 96.4375 C-9.31475463 81.91954088 -7.60674685 67.37153226 -5.9375 52.8125 C-5.74297745 51.1160585 -5.74297745 51.1160585 -5.54452515 49.38534546 C-3.66037131 32.92752818 -1.80729208 16.46643897 0 0 Z " fill="#AD4B1A" transform="translate(501,416)"/>
<path d="M0 0 C27.72 0 55.44 0 84 0 C85.32 3.63 86.64 7.26 88 11 C91.50755268 17.20567013 98.46463521 19.82154507 105 22 C104.87827072 27.07818553 104.7539801 32.15630095 104.62768555 37.234375 C104.58537801 38.94822649 104.54367554 40.66209306 104.50268555 42.37597656 C104.44234412 44.89392725 104.37997895 47.41181635 104.31640625 49.9296875 C104.29421021 50.81357651 104.27201416 51.69746552 104.24914551 52.60813904 C104.12379397 57.30519787 103.96343594 61.99790651 103.74609375 66.69165039 C102.8993084 85.2355005 102.84568879 103.75809239 102.86962891 122.31713867 C102.8753732 126.81912329 102.87199977 131.32104887 102.86605644 135.82303143 C102.86241494 139.35358615 102.86360496 142.88412722 102.86618423 146.41468239 C102.86684111 148.07414571 102.86606964 149.73361036 102.86370468 151.39307213 C102.85348817 160.55333414 103.06328052 169.62720537 103.77638245 178.76168823 C104.11436021 183.65610443 104.10940577 188.53404287 104.0625 193.4375 C104.05798828 194.37142578 104.05347656 195.30535156 104.04882812 196.26757812 C104.03731932 198.51179497 104.02107634 200.75585635 104 203 C103.19175781 203.36351562 102.38351562 203.72703125 101.55078125 204.1015625 C92.82958054 208.20441929 88.65274184 210.8681454 85 220 C56.62 220 28.24 220 -1 220 C-4 213 -4 213 -5 210 C-6.83074675 208.87846644 -6.83074675 208.87846644 -9 208 C-9.67160156 207.65839844 -10.34320313 207.31679688 -11.03515625 206.96484375 C-12.03869141 206.45630859 -12.03869141 206.45630859 -13.0625 205.9375 C-13.73410156 205.59589844 -14.40570313 205.25429688 -15.09765625 204.90234375 C-17.14328314 203.88509619 -17.14328314 203.88509619 -20 203 C-20.119643 196.22023018 -19.9391617 189.49586703 -19.5065918 182.72998047 C-18.94274932 173.21459171 -18.83730288 163.72509131 -18.83203125 154.1953125 C-18.82811774 152.43395446 -18.82401857 150.67259683 -18.81974792 148.91123962 C-18.8106281 144.2689484 -18.80952676 139.62669272 -18.81152344 134.98439407 C-18.81250578 132.10807362 -18.81151749 129.23175852 -18.81030273 126.35543823 C-18.80655149 102.53283679 -18.97013107 78.77412235 -20.42781067 54.98815918 C-20.47225815 54.26116821 -20.51670563 53.53417725 -20.5625 52.78515625 C-20.60553757 52.09168091 -20.64857513 51.39820557 -20.69291687 50.68371582 C-21.23342456 41.13348226 -21.08755893 31.56135126 -21 22 C-19.71041382 21.53279541 -19.71041382 21.53279541 -18.39477539 21.05615234 C-11.37968994 18.45746841 -7.06103046 16.35186815 -3 10 C-2.01 6.7 -1.02 3.4 0 0 Z " fill="#84D802" transform="translate(470,155)"/>
<path d="M0 0 C58.08 0 116.16 0 176 0 C175.39253771 10.32685887 174.75667067 20.61295609 173.87890625 30.9140625 C173.66337506 33.4973928 173.44788152 36.08072624 173.23242188 38.6640625 C172.89996446 42.62052426 172.56656508 46.57690402 172.23217773 50.53320312 C171.46038354 59.68669376 170.71695496 68.8420514 170 78 C169.90036957 79.24938354 169.80073914 80.49876709 169.6980896 81.78601074 C168.06296339 102.69887143 167.639215 123.50099585 167.68295288 144.46790695 C167.6875699 147.03892395 167.68813896 149.60991791 167.68798828 152.18093872 C167.69725223 179.88619348 168.65136314 207.40248816 170.53938293 235.04818726 C171.06119573 243.04322045 171.15810924 250.98986374 171 259 C162.07952205 259.13928574 153.27045412 258.69885156 144.375 258.0625 C108.97716639 255.64973572 74.02481853 255.87725776 38.61354065 257.59706116 C27.41198432 258.13518113 16.2060365 258.56711362 5 259 C5.03758423 258.2320108 5.07516846 257.46402161 5.1138916 256.67276001 C6.79933822 221.95580827 8.31440286 187.25262847 8.31185913 152.48882294 C8.31248697 150.47921972 8.3173316 148.46961923 8.32226562 146.46002197 C8.36289638 119.57219833 6.51603256 92.90851441 4.2532959 66.12634277 C3.98990721 63.00540896 3.73120313 59.88411445 3.47363281 56.76269531 C2.91995978 50.05593895 2.362701 43.34948336 1.8034668 36.64318848 C1.44546804 32.3459923 1.095167 28.04824431 0.75 23.75 C0.67007812 22.80785645 0.59015625 21.86571289 0.5078125 20.89501953 C-0.0495264 13.86506665 0 7.12178867 0 0 Z M46 18 C45.01 21.3 44.02 24.6 43 28 C38.4390014 35.1338696 32.78971685 37.17786099 25 40 C24.85353117 55.40013873 24.85353117 55.40013873 25.4375 70.78515625 C25.48194748 71.51214722 25.52639496 72.23913818 25.57218933 72.98815918 C25.61821793 73.7392395 25.66424652 74.49031982 25.71166992 75.26416016 C27.18035539 99.24551296 27.19861954 123.22919534 27.18847656 147.24583054 C27.18750687 150.10473569 27.18846763 152.96363532 27.18969727 155.82254028 C27.19066027 160.4111238 27.18488697 164.99965462 27.17376137 169.58822441 C27.16997909 171.2905191 27.16752759 172.99281741 27.16658592 174.69511604 C27.15791502 184.12940489 26.95472707 193.51442729 26.35267162 202.93126106 C25.96809377 208.96075092 25.89342767 214.9609015 26 221 C26.60328125 221.25394531 27.2065625 221.50789062 27.828125 221.76953125 C31.91829836 223.53094462 35.50269608 225.20215687 39 228 C39.66 228 40.32 228 41 228 C42.79233825 231.32862819 43.76383185 234.29149555 45 238 C73.38 238 101.76 238 131 238 C132.32 235.36 133.64 232.72 135 230 C136.89453125 228.01171875 136.89453125 228.01171875 138.8125 226.6875 C139.75029297 226.01267578 139.75029297 226.01267578 140.70703125 225.32421875 C143.70768223 223.59130447 146.79533052 222.31820542 150 221 C150.02993587 217.81252107 150.04710106 214.62507965 150.0625 211.4375 C150.07506836 210.12362305 150.07506836 210.12362305 150.08789062 208.78320312 C150.10662046 203.55757822 149.90677893 198.40089045 149.50439453 193.19018555 C148.90435323 184.75759798 148.83708181 176.34916653 148.83203125 167.8984375 C148.82811604 166.26952064 148.82401677 164.64060421 148.81974792 163.01168823 C148.8105875 158.68989579 148.80953378 154.36814143 148.81152344 150.04634094 C148.81250449 147.36271978 148.81151807 144.67910438 148.81030273 141.9954834 C148.80564663 114.36869192 149.3685645 86.83341649 150.69291687 59.23538208 C150.99207619 52.8174089 151.12258832 46.42567104 151 40 C149.94087402 39.61726929 149.94087402 39.61726929 148.86035156 39.22680664 C142.64392254 36.93991797 136.90667506 34.8256117 133.78515625 28.5625 C132.7642962 26.06302772 131.84709317 23.56299985 131 21 C130.505 19.515 130.505 19.515 130 18 C102.28 18 74.56 18 46 18 Z " fill="#00791E" transform="translate(424,137)"/>
<path d="M0 0 C-1.36972516 3.77935618 -3.10593481 6.86585586 -5.37890625 10.17578125 C-6.04849365 11.16030273 -6.71808105 12.14482422 -7.40795898 13.15917969 C-8.47445679 14.72007324 -8.47445679 14.72007324 -9.5625 16.3125 C-18.06107914 28.93443239 -25.4499542 41.29423297 -31.5 55.25 C-39.27919294 73.07114853 -51.07461926 85.51480572 -69.00585938 93.22216797 C-73.86606438 95.11793354 -78.86365223 96.18116195 -84 97 C-85.05397476 97.17240707 -86.10794952 97.34481415 -87.19386292 97.52244568 C-91.10712655 98.01344112 -94.92831174 98.13388465 -98.86303711 98.11352539 C-99.99110779 98.11374443 -99.99110779 98.11374443 -101.14196777 98.1139679 C-103.60379011 98.11327662 -106.06553479 98.10552131 -108.52734375 98.09765625 C-110.2436977 98.09578928 -111.96005219 98.09436669 -113.67640686 98.09336853 C-118.17592867 98.08956533 -122.67541779 98.07975398 -127.17492676 98.06866455 C-131.77351438 98.05840302 -136.37210733 98.05386078 -140.97070312 98.04882812 C-149.98048305 98.03812959 -158.9902388 98.02107977 -168 98 C-166.84012163 94.455773 -165.68075775 91.11743823 -163.93359375 87.8203125 C-163.535354 87.06484131 -163.13711426 86.30937012 -162.72680664 85.53100586 C-162.30133545 84.73702393 -161.87586426 83.94304199 -161.4375 83.125 C-160.99204834 82.28783447 -160.54659668 81.45066895 -160.08764648 80.58813477 C-152.91842753 67.17143542 -145.3589051 54.04409874 -137.32128906 41.12792969 C-136.07738471 39.1246277 -134.84675746 37.11367992 -133.6171875 35.1015625 C-124.60869497 20.52488967 -113.59847154 8.47566233 -98 1 C-97.23300781 0.61972656 -96.46601562 0.23945313 -95.67578125 -0.15234375 C-66.92892208 -13.08599006 -29.87281784 -4.81568749 0 0 Z " fill="#00791E" transform="translate(800,435)"/>
<path d="M0 0 C2.6439792 1.3219896 2.91618522 2.5795655 4.14453125 5.25 C4.56726318 6.15572754 4.98999512 7.06145508 5.42553711 7.99462891 C5.88323486 8.98640137 6.34093262 9.97817383 6.8125 11 C15.83854754 30.19070546 25.7116839 48.87356733 36.37402344 67.20263672 C38.14375566 70.24732016 39.90470242 73.29696804 41.6640625 76.34765625 C42.60971069 77.98734375 42.60971069 77.98734375 43.57446289 79.66015625 C44.84984528 81.87230675 46.12507517 84.08454518 47.40014648 86.296875 C50.46294817 91.60927497 53.53273408 96.91725551 56.62109375 102.21484375 C57.72669302 104.12232019 58.83216836 106.02986846 59.9375 107.9375 C60.70900391 109.25137695 60.70900391 109.25137695 61.49609375 110.59179688 C61.96015625 111.39552734 62.42421875 112.19925781 62.90234375 113.02734375 C63.30960693 113.72593506 63.71687012 114.42452637 64.13647461 115.14428711 C65 117 65 117 65 120 C64.43829102 120.27038086 63.87658203 120.54076172 63.29785156 120.81933594 C41.07990394 131.57228178 19.72379191 143.48276835 0.98828125 159.69921875 C0.33214844 160.12847656 -0.32398438 160.55773437 -1 161 C-4 160 -4 160 -5.2199707 158.06420898 C-5.81684692 156.79299194 -5.81684692 156.79299194 -6.42578125 155.49609375 C-6.8851709 154.54001221 -7.34456055 153.58393066 -7.81787109 152.59887695 C-8.31109863 151.55562256 -8.80432617 150.51236816 -9.3125 149.4375 C-21.8199178 123.75942136 -36.73698262 99.01947997 -55 77 C-55.44408203 76.45972168 -55.88816406 75.91944336 -56.34570312 75.36279297 C-62.06184429 68.4232331 -67.98743879 61.72039505 -74.20483398 55.22436523 C-76.47781877 52.81827945 -77.93904338 51.18286987 -79 48 C-78.23147705 47.63874023 -77.4629541 47.27748047 -76.67114258 46.90527344 C-49.15369106 33.92259681 -23.08106045 20.10142452 0 0 Z " fill="#007A1F" transform="translate(349,189)"/>
<path d="M0 0 C1.08023438 0.350625 2.16046875 0.70125 3.2734375 1.0625 C39.32864782 14.4094159 56.15523344 57.64654769 73.42285156 89.15527344 C75.25202069 92.45457354 77.12278254 95.72781402 79 99 C69.54939574 99.07015531 60.09888397 99.12313842 50.64807415 99.15543652 C46.25755669 99.17095422 41.86722007 99.19193112 37.47680664 99.22631836 C33.22329296 99.2594169 28.96995086 99.27695678 24.71631813 99.28463173 C23.11037311 99.2900863 21.50443523 99.30073062 19.89856529 99.31719017 C3.87144178 99.47461386 -12.5483604 98.53718499 -27 91 C-27.85722656 90.55785156 -28.71445312 90.11570312 -29.59765625 89.66015625 C-46.87733602 80.01878933 -54.76128733 65.0882258 -62.97216797 47.97363281 C-69.72199827 33.95290863 -77.6062449 20.94201805 -86.86474609 8.42724609 C-88.69002952 5.94483097 -90.017408 3.94777601 -91 1 C-26.82987304 -9.04244058 -26.82987304 -9.04244058 0 0 Z " fill="#007A1F" transform="translate(315,434)"/>
<path d="M0 0 C4.19960352 1.38497563 6.61480351 3.28972702 9.75 6.375 C29.68876721 24.89910234 55.82351417 38.17558331 81 48 C78.01002257 52.2584527 74.93149812 56.18854992 71.1875 59.8125 C67.23016176 63.66470971 63.78194628 67.80529536 60.33203125 72.11328125 C58.81691567 73.98877608 57.27379174 75.84210567 55.69921875 77.66796875 C42.76675598 92.67470542 32.25384185 109.31762906 22.44140625 126.47998047 C21.12821601 128.77583915 19.80086091 131.06274557 18.46875 133.34765625 C13.09062989 142.65022886 8.44247049 152.21930202 4 162 C-0.03161053 159.4037926 -3.80188558 156.6170322 -7.55541992 153.63549805 C-17.50057722 145.77627795 -28.02388046 139.30503363 -39 133 C-40.31963454 132.22893173 -41.63869424 131.45687837 -42.95703125 130.68359375 C-50.15792168 126.48444787 -57.49549621 122.62855128 -65 119 C-60.11940564 109.27190005 -54.61809078 99.96392495 -48.9375 90.6875 C-41.29004522 78.19219534 -33.86824585 65.58671907 -26.62353516 52.85205078 C-25.16612465 50.29182981 -23.69910073 47.73738458 -22.23046875 45.18359375 C-13.90568264 30.58514875 -6.74732384 15.38418284 0 0 Z " fill="#007B1F" transform="translate(674,189)"/>
<path d="M0 0 C6.6 0 13.2 0 20 0 C20 5.61 20 11.22 20 17 C22.64 17.33 25.28 17.66 28 18 C30.54419587 19.04666286 32.84533803 20.08754824 35.25 21.375 C35.848125 21.67921875 36.44625 21.9834375 37.0625 22.296875 C40.26363582 23.95410018 43.19419873 25.73591283 46 28 C44.62394084 32.76551013 42.53221934 36.7248553 39.875 40.875 C39.50246094 41.46796875 39.12992188 42.0609375 38.74609375 42.671875 C37.83635 44.1181343 36.91896202 45.55958046 36 47 C33.30474187 45.73164323 31.02934304 44.33323274 28.6875 42.5 C22.81150337 38.27077949 16.12392922 36.98752376 9 38 C4.51801174 39.5579514 1.65919867 41.01120199 -1 45 C-1.78958255 49.43828504 -1.69005327 52.91563057 0.75 56.75 C6.38105793 60.64842472 12.7537032 62.77757901 19.1328125 65.1796875 C29.97922159 69.42393453 38.52759433 75.66312499 44.640625 85.69140625 C46.31108756 89.75715853 46.45762893 93.02977499 46.375 97.375 C46.36194824 98.50772339 46.36194824 98.50772339 46.34863281 99.66333008 C46.11569008 108.47983075 43.4909482 115.23813613 37.31640625 121.78515625 C32.33589239 126.50512009 27.46084656 128.7566505 21 131 C20.67 137.27 20.34 143.54 20 150 C13.4 150 6.8 150 0 150 C0 144.06 0 138.12 0 132 C-2.64 132 -5.28 132 -8 132 C-16.94578138 129.85023858 -24.23150489 126.21340689 -31 120 C-29.72984669 117.77044347 -28.45889952 115.54134574 -27.1875 113.3125 C-26.83107422 112.68666016 -26.47464844 112.06082031 -26.10742188 111.41601562 C-24.1116542 107.91884475 -22.08731295 104.44373714 -20 101 C-15.7927255 103.05402317 -11.7369116 105.36758675 -7.65625 107.66015625 C-1.03358346 111.00070717 7.46858693 111.33521026 14.55859375 109.24609375 C18.44483162 107.42776227 20.36895864 106.07370138 22 102 C22.54302143 97.83683571 22.02685792 95.01334546 19.60107422 91.53857422 C16.0141362 88.09165696 10.95557953 86.71702497 6.375 85 C-13.15669923 77.51566532 -13.15669923 77.51566532 -20.4375 70 C-21.05496094 69.38125 -21.67242187 68.7625 -22.30859375 68.125 C-28.1435613 60.79423245 -27.95959136 53.15068181 -27.29296875 44.203125 C-26.1435154 35.5592358 -20.97414626 28.98154011 -14.37890625 23.625 C-9.94717638 20.59774282 -5.4456218 18 0 18 C0 12.06 0 6.12 0 0 Z " fill="#014900" transform="translate(502,189)"/>
<path d="M0 0 C13.32330464 12.61186604 23.0009815 29.29732219 32.2890625 44.97265625 C32.711875 45.68510498 33.1346875 46.39755371 33.5703125 47.1315918 C36.4140625 52.02895973 36.4140625 52.02895973 36.4140625 54.28515625 C26.35324837 55.1616936 16.35811289 55.50076813 6.26391602 55.52539062 C3.85073156 55.53515961 1.43837929 55.56634732 -0.97460938 55.59765625 C-18.82660741 55.72029389 -33.58266774 52.12310676 -47.234375 40.01953125 C-53.13200582 33.16182099 -56.91952693 24.81091125 -60.8359375 16.72265625 C-65.63462411 6.95190681 -70.90958575 -2.43074565 -76.5859375 -11.71484375 C-56.07098287 -25.39148017 -16.92919573 -14.3763805 0 0 Z " fill="#87DA02" transform="translate(329.5859375,461.71484375)"/>
<path d="M0 0 C3.39858387 0.36894856 5.50144832 1.91701865 8.1875 3.9375 C11.46142071 6.33902867 14.74294328 8.44384463 18.328125 10.3359375 C30.11023472 16.61188546 30.11023472 16.61188546 32.72265625 20.6875 C33.46541177 23.19569955 33.825008 25.39699397 34 28 C34.27714844 28.79148438 34.55429687 29.58296875 34.83984375 30.3984375 C35.04662356 33.75734854 33.77023379 35.07229164 31.63476562 37.55175781 C31.11591797 38.13280273 30.59707031 38.71384766 30.0625 39.3125 C17.67180684 53.97705682 7.71307169 70.65693989 -2.44921875 86.90625 C-2.87315918 87.57954346 -3.29709961 88.25283691 -3.73388672 88.9465332 C-4.61851761 90.38128647 -5.47764529 91.83193872 -6.31689453 93.29370117 C-6.74470215 94.02564697 -7.17250977 94.75759277 -7.61328125 95.51171875 C-7.98880127 96.17389404 -8.36432129 96.83606934 -8.7512207 97.51831055 C-10 99 -10 99 -13.5 99.3125 C-14.655 99.209375 -15.81 99.10625 -17 99 C-17.86625 99.53625 -18.7325 100.0725 -19.625 100.625 C-20.40875 101.07875 -21.1925 101.5325 -22 102 C-25.59333444 100.8613281 -28.75755405 99.09525644 -32.01171875 97.21484375 C-32.93404297 96.68439453 -33.85636719 96.15394531 -34.80664062 95.60742188 C-36.23266602 94.78081055 -36.23266602 94.78081055 -37.6875 93.9375 C-39.58701845 92.84206438 -41.48674751 91.74699385 -43.38671875 90.65234375 C-44.22420654 90.16757568 -45.06169434 89.68280762 -45.92456055 89.18334961 C-47.26337762 88.41999867 -48.62155572 87.68922214 -50 87 C-49.96519531 86.41992188 -49.93039062 85.83984375 -49.89453125 85.2421875 C-49.86746094 84.46101563 -49.84039063 83.67984375 -49.8125 82.875 C-49.77769531 82.10929687 -49.74289062 81.34359375 -49.70703125 80.5546875 C-49.81670322 77.8073015 -49.81670322 77.8073015 -51.8828125 75.30859375 C-53 72 -53 72 -52.15991211 69.86425781 C-50.5655018 67.21981714 -48.84633865 64.70815136 -47.0625 62.1875 C-45.74017919 60.22010824 -44.42397949 58.24859137 -43.11328125 56.2734375 C-42.42959473 55.24702148 -41.7459082 54.22060547 -41.04150391 53.16308594 C-37.71407815 48.00760542 -34.72463304 42.67699856 -31.75 37.3125 C-31.16645752 36.2723877 -30.58291504 35.23227539 -29.98168945 34.16064453 C-27.25504888 29.25784262 -24.64441549 24.33967312 -22.25 19.265625 C-21.61046387 17.94244263 -21.61046387 17.94244263 -20.95800781 16.5925293 C-20.18009013 14.96327283 -19.43196345 13.31928212 -18.72167969 11.65942383 C-17.11836032 8.3196723 -16.17148747 6.41676784 -12.57958984 5.13891602 C-9.8828125 4.6328125 -9.8828125 4.6328125 -7.30126953 4.36767578 C-4.11073812 3.85792188 -2.40919145 2.05489859 0 0 Z " fill="#86D902" transform="translate(688,219)"/>
<path d="M0 0 C2.21832888 1.06808427 4.22238907 2.15443685 6.25 3.5625 C9.05540067 5.28882102 9.05540067 5.28882102 12.875 5.078125 C15.45557109 5.37676414 16.60920558 5.57832817 18.39355469 7.50366211 C19.66428119 9.68170455 20.71986629 11.88572017 21.75 14.1875 C22.60332872 15.93854451 23.45888652 17.68850409 24.31640625 19.4375 C24.75484863 20.35402344 25.19329102 21.27054688 25.64501953 22.21484375 C27.86383173 26.77560223 30.26417095 31.23284509 32.6875 35.6875 C33.17275146 36.58670166 33.65800293 37.48590332 34.15795898 38.41235352 C38.82598376 46.93732159 44.01108487 55.12317732 49.36401367 63.2331543 C49.98252197 64.1900415 50.60103027 65.14692871 51.23828125 66.1328125 C52.074198 67.39955811 52.074198 67.39955811 52.92700195 68.69189453 C54 71 54 71 53.73510742 73.17919922 C53 75 53 75 52 77 C52.02284058 78.0674646 52.02284058 78.0674646 52.04614258 79.15649414 C52.08642211 82.03661743 51.89084692 84.25204361 51 87 C47.95673392 89.9068774 44.44965316 91.60491119 40.6875 93.4375 C38.77391301 94.43461322 36.86112218 95.4332562 34.94921875 96.43359375 C34.09674561 96.85697021 33.24427246 97.28034668 32.3659668 97.71655273 C29.95299617 98.94460417 29.95299617 98.94460417 27.82348633 100.67602539 C26 102 26 102 23.875 101.75 C22 101 22 101 20 100 C18.57161575 99.99681835 17.14322998 99.99429894 15.71484375 99.9921875 C12.84202094 99.68362717 11.46634236 99.47896189 9.43017578 97.38769531 C7.9861011 95.02407289 6.76330433 92.62120651 5.5625 90.125 C4.54965442 88.198213 3.52697206 86.27657458 2.49609375 84.359375 C1.94421387 83.33005859 1.39233398 82.30074219 0.82373047 81.24023438 C-2.44834172 75.42672137 -6.1559281 69.90781706 -9.875 64.375 C-10.25586761 63.80426758 -10.63673523 63.23353516 -11.02914429 62.64550781 C-14.98247232 56.72678104 -19.02004479 50.89787108 -23.3359375 45.234375 C-23.99867676 44.36377441 -24.66141602 43.49317383 -25.34423828 42.59619141 C-26.58240743 40.99066385 -27.83780121 39.39822194 -29.11279297 37.82177734 C-30.59361783 35.91660976 -31.93692576 34.16592336 -33 32 C-32.45507854 29.22384607 -31.97366542 27.97366542 -30 26 C-30.05800781 25.39929688 -30.11601562 24.79859375 -30.17578125 24.1796875 C-30.34477312 21.33096736 -30.16368311 19.62684349 -29 17 C-25.83760824 14.83964516 -22.50217808 13.35860223 -19.0078125 11.8359375 C-14.79683568 9.991699 -11.02066246 7.64877776 -7.1875 5.125 C-6.58333252 4.73119141 -5.97916504 4.33738281 -5.35668945 3.93164062 C-2.53837197 2.14476675 -2.53837197 2.14476675 0 0 Z " fill="#87DA02" transform="translate(334,219)"/>
<path d="M0 0 C-0.35046387 0.64106689 -0.70092773 1.28213379 -1.06201172 1.94262695 C-5.10510887 9.34571374 -9.12203451 16.76264466 -13.125 24.1875 C-14.03572266 25.87262695 -14.03572266 25.87262695 -14.96484375 27.59179688 C-18.68245909 34.48834473 -18.68245909 34.48834473 -22.20703125 41.484375 C-28.47032461 53.76534236 -38.12967023 60.59197585 -50.90625 65.17578125 C-60.15509747 67.63980501 -68.94641566 68.29297706 -78.5 68.1875 C-80.3248291 68.17783203 -80.3248291 68.17783203 -82.18652344 68.16796875 C-92.14442642 68.08395797 -102.06642365 67.68507423 -112 67 C-103.75174795 44.87968768 -86.22319446 15.47510876 -65 4 C-64.31808594 3.62488281 -63.63617187 3.24976563 -62.93359375 2.86328125 C-43.54687812 -6.74081912 -20.48241103 -3.73215299 0 0 Z " fill="#86D902" transform="translate(771,449)"/>
<path d="M0 0 C8.91510748 1.02265066 17.43157394 2.2421982 26 5 C26.90234375 5.28746094 27.8046875 5.57492187 28.734375 5.87109375 C39.2944317 9.46568932 48.56714997 14.69856992 57 22 C57.75152344 22.64453125 58.50304687 23.2890625 59.27734375 23.953125 C69.09094672 33.01183543 76.28368311 45.47070917 77.12304688 58.98046875 C77.37886391 65.73154265 77.27743347 72.34498371 76 79 C67.91525602 73.4445614 61.1359574 66.65956014 54.75 59.2421875 C50.72899041 54.61516794 46.41955594 50.30851976 42.0625 46 C41.28326172 45.22527344 40.50402344 44.45054687 39.70117188 43.65234375 C37.8030758 41.76589243 35.90266851 39.88183755 34 38 C34.40387939 38.6285791 34.80775879 39.2571582 35.22387695 39.90478516 C36.73405132 42.26010298 38.23336757 44.62211449 39.72802734 46.98730469 C40.6489384 48.44450061 41.57132874 49.900762 42.49462891 51.35644531 C61 80.59660633 61 80.59660633 61 85 C46.87677335 85.59675606 32.93125504 78.15229262 22.3125 69.3125 C9.98194047 57.72043133 0.50541578 41.06686229 -0.11352539 23.84033203 C-0.10828857 22.74060059 -0.10305176 21.64086914 -0.09765625 20.5078125 C-0.09443359 19.30898438 -0.09121094 18.11015625 -0.08789062 16.875 C-0.07951172 15.6375 -0.07113281 14.4 -0.0625 13.125 C-0.05798828 11.86429687 -0.05347656 10.60359375 -0.04882812 9.3046875 C-0.0370796 6.20307614 -0.02065167 3.10156275 0 0 Z " fill="#007C1F" transform="translate(241,322)"/>
<path d="M0 0 C4.37250887 18.37875678 -0.60421378 38.29419556 -9.93554688 54.27685547 C-18.32422134 67.85650326 -31.74904198 78.38149683 -46.9140625 83.546875 C-51.54234803 84.55227036 -56.27962047 84.77184832 -61 85 C-53.19490018 68.8155832 -44.09140202 53.85268983 -34 39 C-37.32230385 41.58789984 -40.40294939 44.26721997 -43.375 47.25 C-44.08398438 47.95640625 -44.79296875 48.6628125 -45.5234375 49.390625 C-47.47358168 51.44535105 -49.32693164 53.52546325 -51.171875 55.671875 C-55.51650694 60.67095298 -60.18280145 65.3293253 -64.875 70 C-65.74125 70.87011719 -66.6075 71.74023438 -67.5 72.63671875 C-68.73363281 73.86841797 -68.73363281 73.86841797 -69.9921875 75.125 C-70.73839355 75.87007813 -71.48459961 76.61515625 -72.25341797 77.3828125 C-74 79 -74 79 -75 79 C-77.7680237 64.7580716 -77.02548607 48.47865212 -69 36 C-54.26871687 15.17532248 -32.43230367 4.87518292 -7.94091797 0.27832031 C-5.28127945 -0.10306182 -2.68027638 -0.11009034 0 0 Z " fill="#007C1F" transform="translate(783,322)"/>
<path d="M0 0 C13.56240805 3.63278787 25.70449048 11.62974052 36 21 C36.72703125 21.64582031 37.4540625 22.29164063 38.203125 22.95703125 C48.95949007 33.03599165 57.64350794 48.38199035 58.30078125 63.33203125 C58.31938469 64.82541007 58.32295952 66.31904193 58.3125 67.8125 C58.31048584 68.59568604 58.30847168 69.37887207 58.30639648 70.18579102 C58.19834259 76.46391665 57.15783306 82.08552492 55 88 C54.505 89.485 54.505 89.485 54 91 C50.67687101 89.59986577 49.00992496 88.07865285 46.8984375 85.17578125 C46.33012207 84.40081299 45.76180664 83.62584473 45.17626953 82.82739258 C44.58185059 81.99747803 43.98743164 81.16756348 43.375 80.3125 C42.76124512 79.46776123 42.14749023 78.62302246 41.51513672 77.75268555 C36.13648818 70.30257781 31.01871496 62.69519021 26 55 C26.30292969 55.95890137 26.60585938 56.91780273 26.91796875 57.90576172 C28.03900859 61.45694301 29.15630434 65.00929287 30.27246094 68.56201172 C30.75646219 70.1007459 31.2414841 71.63915941 31.72753906 73.17724609 C32.42520154 75.38556141 33.11920929 77.59499638 33.8125 79.8046875 C34.03123779 80.49432587 34.24997559 81.18396423 34.4753418 81.89450073 C36 86.77225659 36 86.77225659 36 89 C19.4043463 82.76212317 9.7149023 68.91432231 2.1875 53.5 C-5.12865655 36.27242866 -4.54804286 17.86731123 0 0 Z " fill="#007C1F" transform="translate(363,375)"/>
<path d="M0 0 C6.89821294 17.53295788 3.48199486 38.82870009 -3.4375 55.77734375 C-9.73796831 68.77205964 -20.11220779 81.20461865 -33 88 C-33.66 88 -34.32 88 -35 88 C-32.77846387 78.40819108 -30.16117504 69.07096697 -26.93115234 59.76611328 C-25.51346223 55.97298583 -25.51346223 55.97298583 -25 52 C-25.59425781 52.98097656 -26.18851563 53.96195312 -26.80078125 54.97265625 C-31.21195433 62.18267364 -35.74598962 69.24706742 -40.75 76.0625 C-41.18481689 76.65619385 -41.61963379 77.2498877 -42.06762695 77.86157227 C-45.19771654 82.06835115 -48.54518439 86.05687388 -52 90 C-57.46811698 84.81358232 -58.12237932 77.41043804 -58.35839844 70.11938477 C-58.50503014 51.95214841 -51.60474241 36.0498537 -39 23 C-29.91923745 14.50871508 -13.00609686 0 0 0 Z " fill="#007C1F" transform="translate(661,376)"/>
<path d="M0 0 C0 0.66 0 1.32 0 2 C-0.680625 2.25652344 -1.36125 2.51304687 -2.0625 2.77734375 C-8.41122525 5.28475253 -14.36671158 8.15792739 -20.3125 11.5 C-20.96927734 11.86730225 -21.62605469 12.23460449 -22.30273438 12.61303711 C-26.74606718 15.15136383 -30.87637473 17.96996228 -35 21 C-34.33581055 20.80365967 -33.67162109 20.60731934 -32.98730469 20.4050293 C-29.90895046 19.49663184 -26.82948585 18.59205347 -23.75 17.6875 C-22.18378906 17.2244043 -22.18378906 17.2244043 -20.5859375 16.75195312 C-0.19137662 10.77206645 -0.19137662 10.77206645 6 11 C4.07844441 22.91364469 -2.59986723 33.55301702 -12.3828125 40.75390625 C-23.57726297 47.75482433 -33.47292198 50.20321243 -46.5 50.3125 C-48.18222656 50.35600586 -48.18222656 50.35600586 -49.8984375 50.40039062 C-58.59388027 50.46565665 -66.18351134 48.90824433 -74 45 C-72.60615772 31.1145079 -63.68125615 18.59570521 -53.25 9.75 C-37.82775797 -1.94067351 -18.56325683 -7.33794623 0 0 Z " fill="#007C1F" transform="translate(393,549)"/>
<path d="M0 0 C11.87873043 8.63177029 21.39922278 19.93873455 25.5625 34.25 C25.5625 35.57 25.5625 36.89 25.5625 38.25 C23.81343469 38.89836042 22.06320781 39.54358784 20.3125 40.1875 C18.85070312 40.72697266 18.85070312 40.72697266 17.359375 41.27734375 C4.80689242 45.64266241 -13.13417997 45.07713992 -25.4375 40.25 C-26.69626953 39.77433594 -26.69626953 39.77433594 -27.98046875 39.2890625 C-39.66979552 34.1783801 -48.27610552 24.79359783 -53.4375 13.25 C-54.39287495 10.20743202 -54.96271112 7.41525922 -55.4375 4.25 C-48.79129306 4.89648751 -42.56516489 6.38899237 -36.125 8.125 C-34.6719043 8.50978516 -34.6719043 8.50978516 -33.18945312 8.90234375 C-26.59678065 10.65276646 -20.01637636 12.44851642 -13.4375 14.25 C-24.42982101 7.02097644 -35.31277047 0.39711986 -47.4375 -4.75 C-47.4375 -5.41 -47.4375 -6.07 -47.4375 -6.75 C-30.88262835 -11.3506284 -14.55635165 -9.21288079 0 0 Z " fill="#007C1F" transform="translate(680.4375,555.75)"/>
<path d="M0 0 C1.98 0.99 3.96 1.98 6 3 C5.67 3.7425 5.34 4.485 5 5.25 C3.77217129 8.13883312 3.77217129 8.13883312 4 12 C4.96113866 13.36161311 5.95884159 14.69855198 7 16 C7 16.66 7 17.32 7 18 C1.58823529 22 1.58823529 22 -1 22 C-1.4125 21.195625 -1.825 20.39125 -2.25 19.5625 C-3.80700642 16.69279909 -3.80700642 16.69279909 -7.125 16.125 C-8.548125 16.063125 -8.548125 16.063125 -10 16 C-11.26295977 17.06482942 -11.26295977 17.06482942 -11.375 19.5 C-10.99266772 23.0684346 -10.32394652 24.39691783 -8.5 27.375 C-5.7769954 31.99091948 -5.21415949 34.67374764 -6 40 C-7.88794755 43.45038689 -9.96295855 46.4868305 -13 49 C-15.375 49.5546875 -15.375 49.5546875 -18 49.875 C-22.20427792 50.52693187 -22.20427792 50.52693187 -25.125 53.625 C-25.41375 54.40875 -25.7025 55.1925 -26 56 C-27.98 55.01 -29.96 54.02 -32 53 C-31.01 50.36 -30.02 47.72 -29 45 C-29.66 45 -30.32 45 -31 45 C-35 38.25 -35 38.25 -35 36 C-29.58823529 32 -29.58823529 32 -27 32 C-26.525625 32.969375 -26.05125 33.93875 -25.5625 34.9375 C-24.29806053 37.80477437 -24.29806053 37.80477437 -23 39 C-20.66702567 39.04092937 -18.33294775 39.04241723 -16 39 C-15.48934664 34.19985845 -15.95084474 31.69859417 -18.5 27.5625 C-21.24016662 22.97213541 -21.78421881 20.3152608 -21 15 C-19.1875 11.6875 -19.1875 11.6875 -17 9 C-16.56171875 8.44570312 -16.1234375 7.89140625 -15.671875 7.3203125 C-13.35073713 5.48726437 -11.95522502 5.88735259 -9.0625 6.1875 C-6.42924263 6.36312957 -6.42924263 6.36312957 -4 6 C-1.28963084 3.19003917 -1.28963084 3.19003917 0 0 Z " fill="#04741E" transform="translate(691,243)"/>
<path d="M0 0 C1.9375 1.375 1.9375 1.375 3.1875 3.5 C4.73902539 5.56084157 4.73902539 5.56084157 6.90234375 5.6328125 C8.91588478 5.62573503 10.92826168 5.50675333 12.9375 5.375 C12.9375 8.345 12.9375 11.315 12.9375 14.375 C10.2975 14.705 7.6575 15.035 4.9375 15.375 C4.6075 17.025 4.2775 18.675 3.9375 20.375 C7.31625652 22.62750435 8.77696963 22.64758176 12.75 22.8125 C20.45644659 23.36030765 24.80006336 25.50364384 29.9375 31.375 C31.12961438 34.95134313 31.19676574 37.61564683 30.9375 41.375 C29.4375 44.3125 29.4375 44.3125 27.9375 46.375 C28.4325 47.15875 28.9275 47.9425 29.4375 48.75 C30.9375 51.375 30.9375 51.375 30.9375 53.375 C28.9575 54.035 26.9775 54.695 24.9375 55.375 C21.9375 51.625 21.9375 51.625 21.9375 49.375 C20.9475 49.87 20.9475 49.87 19.9375 50.375 C18.0625 50.5078125 18.0625 50.5078125 15.9375 50.5 C14.885625 50.50386719 14.885625 50.50386719 13.8125 50.5078125 C11.9375 50.375 11.9375 50.375 9.9375 49.375 C9.34394386 46.72639573 9.19540731 44.08302678 8.9375 41.375 C14.3825 40.88 14.3825 40.88 19.9375 40.375 C20.2675 38.725 20.5975 37.075 20.9375 35.375 C17.16160459 32.75879458 14.68836222 32.08044245 10.125 32.0625 C3.87351281 31.67755621 0.20702264 29.94338923 -4.0625 25.375 C-6.6234127 21.72763949 -7.09817908 20.08858154 -6.875 15.625 C-6.0625 12.375 -6.0625 12.375 -4.0625 10.375 C-4.33284634 7.93782742 -4.33284634 7.93782742 -5.0625 5.375 C-5.3409375 4.2303125 -5.3409375 4.2303125 -5.625 3.0625 C-5.769375 2.505625 -5.91375 1.94875 -6.0625 1.375 C-2.66661899 -0.80806636 -2.66661899 -0.80806636 0 0 Z " fill="#04731E" transform="translate(334.0625,243.625)"/>
<path d="M0 0 C2.31 0 4.62 0 7 0 C5.125 4.75 5.125 4.75 4 7 C6.475 7.99 6.475 7.99 9 9 C7.9024777 11.99324263 7.32317108 12.84610901 4.375 14.25 C3.59125 14.4975 2.8075 14.745 2 15 C1.505 14.505 1.505 14.505 1 14 C-0.51928038 13.92820036 -2.04167482 13.91607993 -3.5625 13.9375 C-4.38878906 13.94652344 -5.21507812 13.95554687 -6.06640625 13.96484375 C-6.70449219 13.97644531 -7.34257813 13.98804688 -8 14 C-8.66 15.32 -9.32 16.64 -10 18 C-9.50628906 18.36351562 -9.01257813 18.72703125 -8.50390625 19.1015625 C-5.40603332 21.53248895 -3.31228717 23.26612516 -1.75 26.9375 C-2.11081998 31.35754474 -3.77295799 33.99315615 -7 37 C-11.12632654 39.35790088 -15.23020509 40.44716827 -20 40 C-20.66 41.32 -21.32 42.64 -22 44 C-23.98 44 -25.96 44 -28 44 C-27.67 42.35 -27.34 40.7 -27 39 C-27.825 38.566875 -28.65 38.13375 -29.5 37.6875 C-30.325 37.130625 -31.15 36.57375 -32 36 C-32 35.01 -32 34.02 -32 33 C-29.5 30.8125 -29.5 30.8125 -27 29 C-25 30 -23 31 -21 32 C-19.62657169 32.0689472 -18.24997898 32.08467708 -16.875 32.0625 C-14.956875 32.0315625 -14.956875 32.0315625 -13 32 C-12.67 30.68 -12.34 29.36 -12 28 C-12.58910156 27.57589844 -13.17820312 27.15179688 -13.78515625 26.71484375 C-19.86100386 21.97297297 -19.86100386 21.97297297 -20.5 17.5 C-18.39903114 12.59773932 -15.46567887 9.86012543 -11 7 C-8.63602656 6.07317232 -6.35685005 5.36541351 -3.8828125 4.80078125 C-1.80325833 4.13320455 -1.80325833 4.13320455 -0.7421875 1.91796875 C-0.49726562 1.28503906 -0.25234375 0.65210938 0 0 Z " fill="#05741E" transform="translate(726,461)"/>
<path d="M0 0 C3.3125 -0.3125 3.3125 -0.3125 7 0 C7.45375 0.78375 7.9075 1.5675 8.375 2.375 C9.71813879 5.15430372 9.71813879 5.15430372 12.17578125 5.77734375 C14.44590172 6.26102416 16.70176319 6.67718686 19 7 C19.33 8.65 19.66 10.3 20 12 C15.545 12.495 15.545 12.495 11 13 C11.33 14.32 11.66 15.64 12 17 C13.24136719 17.31453125 14.48273438 17.6290625 15.76171875 17.953125 C17.40381793 18.3847625 19.04573566 18.81709067 20.6875 19.25 C21.50412109 19.45496094 22.32074219 19.65992188 23.16210938 19.87109375 C29.37188498 21.53038602 33.32892064 23.49338096 37 29 C37.125 31.6875 37.125 31.6875 37 34 C35.68 34.66 34.36 35.32 33 36 C33.495 36.78375 33.99 37.5675 34.5 38.375 C36 41 36 41 36 43 C32.625 43.1875 32.625 43.1875 29 43 C28.34 42.01 27.68 41.02 27 40 C23.89188713 39.19458793 23.89188713 39.19458793 20.375 38.8125 C18.59222656 38.57466797 18.59222656 38.57466797 16.7734375 38.33203125 C15.85820312 38.22246094 14.94296875 38.11289062 14 38 C14 36.02 14 34.04 14 32 C18.62 32 23.24 32 28 32 C27.47847295 28.06008078 27.47847295 28.06008078 25.3046875 26.80859375 C22.57917762 25.85235554 19.98762801 25.44491214 17.125 25.0625 C10.95039534 24.07966499 6.45397914 22.80173647 2.125 18.125 C-0.03767501 14.94459557 -0.5479217 13.72586758 0 10 C1.32 9.34 2.64 8.68 4 8 C3.01 6.576875 3.01 6.576875 2 5.125 C0 2 0 2 0 0 Z " fill="#04711E" transform="translate(296,462)"/>
<path d="M0 0 C6.6 0 13.2 0 20 0 C20 5.61 20 11.22 20 17 C20.66 17.33 21.32 17.66 22 18 C20.68 17.67 19.36 17.34 18 17 C18 12.05 18 7.1 18 2 C12.39 2 6.78 2 1 2 C1 7.28 1 12.56 1 18 C0.67 18 0.34 18 0 18 C0 12.06 0 6.12 0 0 Z " fill="#002700" transform="translate(502,189)"/>
<path d="M0 0 C0.58265625 0.19335938 1.1653125 0.38671875 1.765625 0.5859375 C8.45872225 2.71173254 15.05688998 3.95046011 22 5 C22 10.94 22 16.88 22 23 C28.6 23 35.2 23 42 23 C42 23.33 42 23.66 42 24 C38.52085059 24.02887814 35.04173169 24.04675687 31.5625 24.0625 C30.07266602 24.07506836 30.07266602 24.07506836 28.55273438 24.08789062 C27.60849609 24.09111328 26.66425781 24.09433594 25.69140625 24.09765625 C24.37958374 24.10551147 24.37958374 24.10551147 23.04125977 24.11352539 C21 24 21 24 20 23 C19.92680379 20.30345146 19.90757463 17.63308542 19.9375 14.9375 C19.94201172 14.17888672 19.94652344 13.42027344 19.95117188 12.63867188 C19.9629932 10.75908129 19.98092922 8.87953101 20 7 C19.2265625 6.90203125 18.453125 6.8040625 17.65625 6.703125 C10.98255786 5.74502068 5.84373493 4.37138553 0 1 C0 0.67 0 0.34 0 0 Z " fill="#9EED02" transform="translate(480,316)"/>
<path d="M0 0 C2.74849328 1.37424664 3.09596578 2.93677431 4.390625 5.70703125 C4.85049805 6.6813208 5.31037109 7.65561035 5.78417969 8.65942383 C6.26790039 9.69993896 6.75162109 10.7404541 7.25 11.8125 C8.23855507 13.91714995 9.22812969 16.02132133 10.21875 18.125 C10.69570313 19.13949219 11.17265625 20.15398437 11.6640625 21.19921875 C13.72495962 25.51987149 15.92560035 29.76108858 18.171875 33.98828125 C18.44515625 34.65214844 18.7184375 35.31601563 19 36 C18.67 36.66 18.34 37.32 18 38 C8.40988567 19.91081007 8.40988567 19.91081007 3.875 10.9375 C3.31554687 9.83277344 2.75609375 8.72804687 2.1796875 7.58984375 C1 5 1 5 1 3 C0.071875 3.66 -0.85625 4.32 -1.8125 5 C-5 7 -5 7 -8 7 C-5.36 4.69 -2.72 2.38 0 0 Z " fill="#009E25" transform="translate(349,189)"/>
<path d="M0 0 C0.33 0 0.66 0 1 0 C1.33 4.29 1.66 8.58 2 13 C4.46278801 10.53721199 4.99771255 8.29323018 6 5 C6.99443769 7.98331306 7.02452065 9.20838759 6.66015625 12.23046875 C6.56669922 13.03291016 6.47324219 13.83535156 6.37695312 14.66210938 C6.22129883 15.91217773 6.22129883 15.91217773 6.0625 17.1875 C5.91264648 18.4549707 5.91264648 18.4549707 5.75976562 19.74804688 C5.51242892 21.83274197 5.25698959 23.91647284 5 26 C1.55630597 22.77558947 0.19995593 19.70895709 -0.15332031 14.92285156 C-0.19610619 12.65320975 -0.17500448 10.39443425 -0.125 8.125 C-0.11597656 7.34125 -0.10695313 6.5575 -0.09765625 5.75 C-0.07428063 3.83319945 -0.03841653 1.91655809 0 0 Z " fill="#D35A20" transform="translate(476,833)"/>
<path d="M0 0 C0.33 0 0.66 0 1 0 C2.23195644 11.65958771 2.10247722 23.29079561 2 35 C1.67 35 1.34 35 1 35 C0.67 33.35 0.34 31.7 0 30 C-0.33 30 -0.66 30 -1 30 C-1.10849626 19.93395765 -0.9767249 10.02887177 0 0 Z " fill="#9BE701" transform="translate(571,309)"/>
<path d="M0 0 C2.12157386 3.79870734 2.24663053 6.64286068 2 11 C1.67 11.33 1.34 11.66 1 12 C0.72557372 13.81387709 0.50850483 15.63650389 0.31640625 17.4609375 C0.19330078 18.57210938 0.07019531 19.68328125 -0.05664062 20.828125 C-0.30967322 23.18457217 -0.55969465 25.5413447 -0.80664062 27.8984375 C-0.99323242 29.5690625 -0.99323242 29.5690625 -1.18359375 31.2734375 C-1.29243896 32.29872559 -1.40128418 33.32401367 -1.51342773 34.38037109 C-2 37 -2 37 -4 40 C-4.30300877 31.5252234 -3.13910141 23.30970424 -2 14.9375 C-1.80675697 13.48509708 -1.61404435 12.03262349 -1.421875 10.58007812 C-0.95402853 7.05254969 -0.47901287 3.52603159 0 0 Z " fill="#D05A1F" transform="translate(498,447)"/>
<path d="M0 0 C0.66 0.33 1.32 0.66 2 1 C1.62077393 1.54414551 1.24154785 2.08829102 0.85083008 2.64892578 C-0.85392029 5.12459074 -2.52058976 7.62371775 -4.1875 10.125 C-4.78498047 10.9809375 -5.38246094 11.836875 -5.99804688 12.71875 C-7.57574059 15.11758255 -8.95981853 17.3225226 -10 20 C-9.06104665 23.41106551 -9.06104665 23.41106551 -7 26 C-6.6875 29.75 -6.6875 29.75 -7 33 C-7.66 33.66 -8.32 34.32 -9 35 C-9.07347656 33.95199219 -9.07347656 33.95199219 -9.1484375 32.8828125 C-9.22320313 31.97273438 -9.29796875 31.06265625 -9.375 30.125 C-9.44460938 29.22007812 -9.51421875 28.31515625 -9.5859375 27.3828125 C-9.79568132 24.82058097 -9.79568132 24.82058097 -12 23 C-11.93663824 17.0439948 -8.65827194 12.86970772 -5.4375 8.125 C-4.91736328 7.34125 -4.39722656 6.5575 -3.86132812 5.75 C-2.58325283 3.82702433 -1.29608737 1.91086131 0 0 Z " fill="#08651F" transform="translate(646,271)"/>
<path d="M0 0 C0.33 0.66 0.66 1.32 1 2 C0.00390625 4.6015625 0.00390625 4.6015625 -1.4375 7.625 C-1.91058594 8.62789062 -2.38367188 9.63078125 -2.87109375 10.6640625 C-3.24363281 11.43492187 -3.61617188 12.20578125 -4 13 C-3.67 13.33 -3.34 13.66 -3 14 C-3 17.44360632 -3.79591532 18.74795392 -5.5 21.6875 C-5.9640625 22.49574219 -6.428125 23.30398438 -6.90625 24.13671875 C-7.2671875 24.75160156 -7.628125 25.36648438 -8 26 C-10.1230176 20.30645279 -7.02103999 14.38525562 -5 9 C-3.49186544 5.89000501 -1.84295023 2.92303992 0 0 Z " fill="#CE5A1F" transform="translate(363,772)"/>
<path d="M0 0 C-3.3 3.3 -6.6 6.6 -10 10 C-10 7 -10 7 -8 4 C-12.455 4.495 -12.455 4.495 -17 5 C-15.49200696 1.98401393 -13.32266466 1.86260957 -10.1875 0.8125 C-9.12917969 0.44769531 -8.07085938 0.08289063 -6.98046875 -0.29296875 C-4 -1 -4 -1 0 0 Z " fill="#CE5C21" transform="translate(616,494)"/>
<path d="M0 0 C1.02083333 0.875 2.04166667 1.75 3.0625 2.625 C4.01769531 3.44097656 4.01769531 3.44097656 4.9921875 4.2734375 C6.29650479 5.39504886 7.59384182 6.52484775 8.8828125 7.6640625 C9.47835938 8.18742187 10.07390625 8.71078125 10.6875 9.25 C11.22761719 9.72953125 11.76773437 10.2090625 12.32421875 10.703125 C14.12269616 12.09495367 15.93963711 13.0483727 18 14 C18 12.35 18 10.7 18 9 C20 10 20 10 20.6328125 11.84765625 C20.87644531 12.94400391 20.87644531 12.94400391 21.125 14.0625 C21.29257812 14.79597656 21.46015625 15.52945312 21.6328125 16.28515625 C21.75398438 16.85105469 21.87515625 17.41695313 22 18 C13.31453408 14.74485165 5.91162522 9.15193896 0 2 C0 1.34 0 0.68 0 0 Z " fill="#009D26" transform="translate(377,446)"/>
<path d="M0 0 C0.66 0.33 1.32 0.66 2 1 C1.236875 1.886875 0.47375 2.77375 -0.3125 3.6875 C-1.94252415 5.63345579 -3.25617156 7.43036821 -4.5625 9.625 C-6 12 -6 12 -7.9375 13.8125 C-10.77675938 16.8238357 -12.29369319 20.26064677 -14 24 C-15 21 -15 21 -14.28515625 19.08984375 C-10.33597693 12.13777408 -5.66661253 5.66661253 0 0 Z " fill="#009323" transform="translate(337,561)"/>
<path d="M0 0 C2.32472205 2.85306797 3.7508258 5.54074837 5 9 C5.66 9 6.32 9 7 9 C6.47731534 11.76276177 5.89130413 14.3260876 5 17 C7.475 17.99 7.475 17.99 10 19 C10.99 18.01 11.98 17.02 13 16 C12.34 17.98 11.68 19.96 11 22 C8.0280615 20.87548273 5.66559313 19.77706209 3 18 C3.2475 16.824375 3.495 15.64875 3.75 14.4375 C4.41317629 9.4504143 2.67220532 7.12977185 0 3 C0 2.01 0 1.02 0 0 Z " fill="#9EEA01" transform="translate(655,279)"/>
<path d="M0 0 C4.23909658 1.3854241 6.70658025 3.32712012 9.8125 6.5 C10.60269531 7.2940625 11.39289062 8.088125 12.20703125 8.90625 C14 11 14 11 14 13 C10.30123909 11.62712658 7.0485524 9.93644547 3.6875 7.875 C2.80449219 7.33617187 1.92148437 6.79734375 1.01171875 6.2421875 C0.34785156 5.83226562 -0.31601562 5.42234375 -1 5 C1.49092811 3.75453595 2.41080733 4.2232422 5 5 C4.01 4.67 3.02 4.34 2 4 C0.8125 1.9375 0.8125 1.9375 0 0 Z " fill="#CE5A1E" transform="translate(701,701)"/>
<path d="M0 0 C2.99324263 1.0975223 3.84610901 1.67682892 5.25 4.625 C5.4975 5.40875 5.745 6.1925 6 7 C0.25 11 0.25 11 -2 11 C-2.391875 10.21625 -2.78375 9.4325 -3.1875 8.625 C-5.62451318 5.09553263 -7.90626822 4.84964244 -12 4 C-10.68 3.34 -9.36 2.68 -8 2 C-6.6696875 2.9590625 -6.6696875 2.9590625 -5.3125 3.9375 C-2.30788572 5.80829757 -0.4489629 6.59423966 3 7 C2.01 4.69 1.02 2.38 0 0 Z " fill="#08681E" transform="translate(692,254)"/>
<path d="M0 0 C0.66 0 1.32 0 2 0 C2 0.66 2 1.32 2 2 C0.576875 2.928125 0.576875 2.928125 -0.875 3.875 C-3.82241872 5.87924473 -4.83853833 6.74790731 -6 10 C-6.99 9.67 -7.98 9.34 -9 9 C-11.26886421 10.01662187 -11.26886421 10.01662187 -13.5625 11.5 C-15.94140625 12.96875 -15.94140625 12.96875 -18 14 C-18.66 13.67 -19.32 13.34 -20 13 C-19.42967041 12.64172119 -18.85934082 12.28344238 -18.27172852 11.91430664 C-15.70112541 10.29840156 -13.13179849 8.68047854 -10.5625 7.0625 C-9.66466797 6.49853516 -8.76683594 5.93457031 -7.84179688 5.35351562 C-6.98779297 4.81533203 -6.13378906 4.27714844 -5.25390625 3.72265625 C-4.46314697 3.22515869 -3.6723877 2.72766113 -2.85766602 2.21508789 C-1.0643487 1.13257981 -1.0643487 1.13257981 0 0 Z " fill="#9DE902" transform="translate(334,219)"/>
<path d="M0 0 C0.66 0.33 1.32 0.66 2 1 C-2.07999715 4.69749741 -5.86395088 6.2589664 -11 8 C-11.33 13.61 -11.66 19.22 -12 25 C-12.33 25 -12.66 25 -13 25 C-13.33 19.06 -13.66 13.12 -14 7 C-11.73125 5.824375 -9.4625 4.64875 -7.125 3.4375 C-6.41230957 3.06294678 -5.69961914 2.68839355 -4.96533203 2.30249023 C-3.33934362 1.47508206 -1.66987304 0.73482423 0 0 Z " fill="#A3F002" transform="translate(536,313)"/>
<path d="M0 0 C7.25160335 1.819794 14.12380756 4.06158371 21 7 C17.36804504 8.21065165 15.93468371 7.62784815 12.3125 6.5625 C11.31863281 6.27503906 10.32476562 5.98757813 9.30078125 5.69140625 C8.54152344 5.46324219 7.78226562 5.23507812 7 5 C6.67 5.66 6.34 6.32 6 7 C4.02 4.69 2.04 2.38 0 0 Z " fill="#CE581E" transform="translate(408,492)"/>
<path d="M0 0 C0.33 0.66 0.66 1.32 1 2 C-0.07983398 4.43017578 -0.07983398 4.43017578 -1.74609375 7.4453125 C-2.33583984 8.52167969 -2.92558594 9.59804688 -3.53320312 10.70703125 C-4.16162109 11.83496094 -4.79003906 12.96289062 -5.4375 14.125 C-6.06205078 15.26066406 -6.68660156 16.39632813 -7.33007812 17.56640625 C-8.87962753 20.38161814 -10.43652715 23.19250403 -12 26 C-12.33 26 -12.66 26 -13 26 C-13.1875 23.6875 -13.1875 23.6875 -13 21 C-12.01692763 19.98335419 -11.01450358 18.98528295 -10 18 C-8.81327573 16.10756427 -8.81327573 16.10756427 -7.7734375 14.0234375 C-7.3815625 13.270625 -6.9896875 12.5178125 -6.5859375 11.7421875 C-6.18632813 10.96101563 -5.78671875 10.17984375 -5.375 9.375 C-4.57184405 7.81952075 -3.76723297 6.26479168 -2.9609375 4.7109375 C-2.60821777 4.02306152 -2.25549805 3.33518555 -1.89208984 2.62646484 C-1 1 -1 1 0 0 Z " fill="#9EEC02" transform="translate(764,458)"/>
<path d="M0 0 C0.66 0 1.32 0 2 0 C2 6.93 2 13.86 2 21 C-1 18 -1 18 -1.328125 15.0390625 C-1.30234375 13.91242188 -1.2765625 12.78578125 -1.25 11.625 C-1.23453125 10.50351563 -1.2190625 9.38203125 -1.203125 8.2265625 C-1.02408578 5.38259332 -0.64336078 2.77060207 0 0 Z " fill="#78D104" transform="translate(451,205)"/>
<path d="M0 0 C2.31 0.33 4.62 0.66 7 1 C6.773125 1.928125 6.54625 2.85625 6.3125 3.8125 C5.63680017 6.96826848 5.63680017 6.96826848 7.4375 8.875 C7.953125 9.24625 8.46875 9.6175 9 10 C8.67 10.66 8.34 11.32 8 12 C6.6547417 10.76284282 5.32412124 9.50975423 4 8.25 C3.2575 7.55390625 2.515 6.8578125 1.75 6.140625 C0 4 0 4 0 0 Z " fill="#BA511C" transform="translate(415,497)"/>
<path d="M0 0 C0 0.33 0 0.66 0 1 C-4.29 1.99 -8.58 2.98 -13 4 C-13.33 5.98 -13.66 7.96 -14 10 C-14.66 9.67 -15.32 9.34 -16 9 C-15.979375 8.21625 -15.95875 7.4325 -15.9375 6.625 C-15.81315937 4.01885039 -15.81315937 4.01885039 -17 2 C-11.16200408 0.30167391 -6.06892629 -0.25287193 0 0 Z " fill="#03691F" transform="translate(267,446)"/>
<path d="M0 0 C1 3 1 3 1 5 C1.99 4.34 2.98 3.68 4 3 C2.52278578 6.45201639 0.56205999 8.64961936 -2.125 11.25 C-2.84945313 11.95640625 -3.57390625 12.6628125 -4.3203125 13.390625 C-4.87460937 13.92171875 -5.42890625 14.4528125 -6 15 C-6 11.21286807 -4.73107406 9.16645599 -3 5.8125 C-2.443125 4.72582031 -1.88625 3.63914062 -1.3125 2.51953125 C-0.879375 1.68808594 -0.44625 0.85664062 0 0 Z " fill="#DA6223" transform="translate(425,821)"/>
<path d="M0 0 C3.12572333 2.69159509 4.8036782 5.9634132 6.75 9.5625 C7.38421875 10.71878906 8.0184375 11.87507812 8.671875 13.06640625 C9.11015625 14.03449219 9.5484375 15.00257813 10 16 C9.67 16.66 9.34 17.32 9 18 C6.69 15.69 4.38 13.38 2 11 C2.66 10.67 3.32 10.34 4 10 C3.71125 9.44570313 3.4225 8.89140625 3.125 8.3203125 C2.568125 7.23363281 2.568125 7.23363281 2 6.125 C1.62875 5.40570312 1.2575 4.68640625 0.875 3.9453125 C0 2 0 2 0 0 Z " fill="#DA6222" transform="translate(597,818)"/>
<path d="M0 0 C2.31 0.33 4.62 0.66 7 1 C7.33 2.65 7.66 4.3 8 6 C4.83013832 7.58493084 1.45967739 7.2940042 -2 7 C-4.5 6 -4.5 6 -6 5 C-2.18243176 3.62567543 1.07255329 4.32024961 5 5 C5 4.34 5 3.68 5 3 C2.525 2.01 2.525 2.01 0 1 C0 0.67 0 0.34 0 0 Z " fill="#A3EA02" transform="translate(316,488)"/>
<path d="M0 0 C0.99 0 1.98 0 3 0 C3.45510807 6.67491831 1.7672426 12.59374557 0 19 C-1.27603607 15.17189179 -0.86283987 11.76524893 -0.5625 7.8125 C-0.51029297 7.06291016 -0.45808594 6.31332031 -0.40429688 5.54101562 C-0.27486216 3.69362918 -0.13813482 1.84675629 0 0 Z " fill="#A04619" transform="translate(543,851)"/>
<path d="M0 0 C0.99 0 1.98 0 3 0 C0.33035714 5.75 0.33035714 5.75 -2 8 C-6.37855495 8.46913089 -8.29584707 8.46943529 -12 6 C-8.7 6 -5.4 6 -2 6 C-1.855625 5.195625 -1.71125 4.39125 -1.5625 3.5625 C-1 1 -1 1 0 0 Z " fill="#056B1E" transform="translate(557,369)"/>
<path d="M0 0 C0.33 0.66 0.66 1.32 1 2 C4.73149156 3.39469115 8.80883629 3.33526844 12.75 3.5625 C13.44738281 3.60568359 14.14476562 3.64886719 14.86328125 3.69335938 C16.57531922 3.79889596 18.28763561 3.8998991 20 4 C20 4.33 20 4.66 20 5 C12.74 5 5.48 5 -2 5 C-1.34 3.35 -0.68 1.7 0 0 Z " fill="#A8F102" transform="translate(661,511)"/>
<path d="M0 0 C-3.11910856 1.79275866 -5.67682428 2.34290718 -9.25 2.625 C-10.14203125 2.69976563 -11.0340625 2.77453125 -11.953125 2.8515625 C-12.62859375 2.90054688 -13.3040625 2.94953125 -14 3 C-14 3.66 -14 4.32 -14 5 C-16.97 4.505 -16.97 4.505 -20 4 C-14.34997552 0.23331701 -6.6999555 -0.36215976 0 0 Z " fill="#CD581E" transform="translate(397,677)"/>
<path d="M0 0 C3.43950364 0.61198376 5.51564485 1.92058847 8.25 4.0625 C8.95640625 4.61035156 9.6628125 5.15820312 10.390625 5.72265625 C11.18726563 6.35494141 11.18726563 6.35494141 12 7 C11.01 7.495 11.01 7.495 10 8 C9.57589844 7.61585938 9.15179687 7.23171875 8.71484375 6.8359375 C6.85171791 5.30448901 5.17401474 4.05343185 3 3 C-0.87222639 3.5205946 -0.87222639 3.5205946 -4 5 C-2.68 3.35 -1.36 1.7 0 0 Z " fill="#A0EA03" transform="translate(688,219)"/>
<path d="M0 0 C3.25543229 0.34879632 4.01873107 1.02133261 6.25 3.5625 C7.11625 4.7690625 7.11625 4.7690625 8 6 C5.1875 6.625 5.1875 6.625 2 7 C1.01 6.34 0.02 5.68 -1 5 C-0.01 4.67 0.98 4.34 2 4 C1.01 3.34 0.02 2.68 -1 2 C-0.67 1.34 -0.34 0.68 0 0 Z " fill="#78D103" transform="translate(315,487)"/>
<path d="M0 0 C-0.6484375 1.890625 -0.6484375 1.890625 -2 4 C-4.6015625 5.046875 -4.6015625 5.046875 -7.625 5.75 C-9.12933594 6.11351562 -9.12933594 6.11351562 -10.6640625 6.484375 C-11.43492187 6.65453125 -12.20578125 6.8246875 -13 7 C-9.48279054 3.25760335 -5.29643413 0 0 0 Z " fill="#C7561D" transform="translate(433,722)"/>
<path d="M0 0 C0.66 0.33 1.32 0.66 2 1 C2 1.33 2 1.66 2 2 C2.66 2.33 3.32 2.66 4 3 C0.37 5.31 -3.26 7.62 -7 10 C-4.98127747 5.96255494 -2.91899872 3.37989325 0 0 Z " fill="#D15D1F" transform="translate(315,707)"/>
<path d="M0 0 C0.66 0 1.32 0 2 0 C3.3671875 1.57421875 3.3671875 1.57421875 4.875 3.6875 C5.4009375 4.41324219 5.926875 5.13898438 6.46875 5.88671875 C6.9740625 6.58410156 7.479375 7.28148437 8 8 C9.32481269 9.67344761 10.65407903 11.34348188 12 13 C7.78221931 11.65963446 5.81890551 10.03147232 3.1875 6.5 C2.58292969 5.7059375 1.97835938 4.911875 1.35546875 4.09375 C0 2 0 2 0 0 Z " fill="#076221" transform="translate(275,493)"/>
<path d="M0 0 C3.15111212 2.52952288 3.58798017 4.76756266 4.1875 8.6875 C4.42533203 10.17830078 4.42533203 10.17830078 4.66796875 11.69921875 C4.77753906 12.45847656 4.88710938 13.21773437 5 14 C1.4780707 9.43596559 -0.33577328 5.87603248 0 0 Z " fill="#CC5A20" transform="translate(666,785)"/>
<path d="M0 0 C4.10958767 1.45044271 7.43258745 3.51110752 11 6 C11.66 5.67 12.32 5.34 13 5 C12.67 6.32 12.34 7.64 12 9 C8.98472262 7.59422879 6.4052059 5.93873852 3.75 3.9375 C3.04359375 3.41027344 2.3371875 2.88304687 1.609375 2.33984375 C1.07828125 1.89769531 0.5471875 1.45554688 0 1 C0 0.67 0 0.34 0 0 Z " fill="#082D01" transform="translate(526,227)"/>
<path d="M0 0 C0 0.99 0 1.98 0 3 C-4.34285714 7 -4.34285714 7 -7 7 C-5.54744301 3.17053157 -3.57104439 1.87949705 0 0 Z " fill="#008820" transform="translate(682,452)"/>
<path d="M0 0 C6.0546875 -0.1953125 6.0546875 -0.1953125 8 0 C8.66 0.66 9.32 1.32 10 2 C7.29120665 3.35439668 4.99066732 3.06501451 2 3 C2 2.34 2 1.68 2 1 C1.34 0.67 0.68 0.34 0 0 Z " fill="#BE511C" transform="translate(637,679)"/>
<path d="M0 0 C0.99 0.33 1.98 0.66 3 1 C1.25 3.9375 1.25 3.9375 -1 7 C-2.32 7.33 -3.64 7.66 -5 8 C-3.35 5.36 -1.7 2.72 0 0 Z " fill="#056A20" transform="translate(745,495)"/>
<path d="M0 0 C2.32590854 3.63423209 2.16265833 6.77088331 2 11 C1.01 11.495 1.01 11.495 0 12 C-1.16063604 7.74433453 -0.76173392 4.3164922 0 0 Z " fill="#C1531D" transform="translate(498,447)"/>
<path d="M0 0 C2.55934601 1.279673 2.6989233 2.24201036 3.6875 4.875 C3.95949219 5.57367187 4.23148438 6.27234375 4.51171875 6.9921875 C5 9 5 9 4 12 C1 6.375 1 6.375 1 3 C0.34 3 -0.32 3 -1 3 C-0.67 2.01 -0.34 1.02 0 0 Z " fill="#CE581F" transform="translate(592,805)"/>
<path d="M0 0 C1.32 0.33 2.64 0.66 4 1 C3.34 1 2.68 1 2 1 C2.66 1.66 3.32 2.32 4 3 C4.33 3 4.66 3 5 3 C5 4.65 5 6.3 5 8 C2.20127563 5.47211993 0.54226981 3.79588866 0 0 Z " fill="#03661F" transform="translate(328,245)"/>
<path d="M0 0 C3.3 0.99 6.6 1.98 10 3 C6 4 6 4 3 4 C2.01 2.68 1.02 1.36 0 0 Z " fill="#D66123" transform="translate(408,492)"/>
<path d="M0 0 C0.99 0 1.98 0 3 0 C3 1.98 3 3.96 3 6 C3.66 6.33 4.32 6.66 5 7 C4.01 7.33 3.02 7.66 2 8 C1.34 7.67 0.68 7.34 0 7 C0 4.69 0 2.38 0 0 Z " fill="#6DCB06" transform="translate(341,287)"/>
<path d="M0 0 C0.66 0.33 1.32 0.66 2 1 C0.29374499 3.78388975 -0.47626739 4.85384206 -3.6875 5.75 C-4.8321875 5.87375 -4.8321875 5.87375 -6 6 C-4 4 -2 2 0 0 Z " fill="#CC591F" transform="translate(566,515)"/>
<path d="M0 0 C2 1 2 1 2.6328125 2.84765625 C2.79523438 3.57855469 2.95765625 4.30945313 3.125 5.0625 C3.29257812 5.79597656 3.46015625 6.52945312 3.6328125 7.28515625 C3.75398438 7.85105469 3.87515625 8.41695313 4 9 C3.01 8.67 2.02 8.34 1 8 C0.67 5.36 0.34 2.72 0 0 Z " fill="#008E23" transform="translate(395,455)"/>
<path d="M0 0 C1.65 0 3.3 0 5 0 C5 2.31 5 4.62 5 7 C2.65941363 4.87219421 1.29299694 2.88437779 0 0 Z " fill="#AFEF01" transform="translate(253,449)"/>
<path d="M0 0 C0.33 0.99 0.66 1.98 1 3 C0.01 3.99 -0.98 4.98 -2 6 C-2.99 5.01 -3.98 4.02 -5 3 C-4.01 3 -3.02 3 -2 3 C-2 2.34 -2 1.68 -2 1 C-1.34 0.67 -0.68 0.34 0 0 Z " fill="#046720" transform="translate(666,293)"/>
</svg>
